0
SECTION
2
HEADER
9
$INSUNITS
70
4
9
$ACADVER
1
AC1014
9
$HANDSEED
5
FFFF
0
ENDSEC
0
SECTION
2
TABLES
0
TABLE
2
VPORT
5
8
100
AcDbSymbolTable
0
ENDTAB
0
TABLE
2
LTYPE
5
5
100
AcDbSymbolTable
0
LTYPE
5
14
100
AcDbSymbolTableRecord
100
AcDbLinetypeTableRecord
2
BYBLOCK
70
0
0
LTYPE
5
15
100
AcDbSymbolTableRecord
100
AcDbLinetypeTableRecord
2
BYLAYER
70
0
0
ENDTAB
0
TABLE
2
LAYER
5
2
100
AcDbSymbolTable
70
2
0
LAYER
5
50
100
AcDbSymbolTableRecord
100
AcDbLayerTableRecord
2
0
70
0
6
CONTINUOUS
0
ENDTAB
0
TABLE
2
STYLE
5
3
100
AcDbSymbolTable
70
1
0
STYLE
5
11
100
AcDbSymbolTableRecord
100
AcDbTextStyleTableRecord
2
STANDARD
70
0
0
ENDTAB
0
TABLE
2
VIEW
5
6
100
AcDbSymbolTable
70
0
0
ENDTAB
0
TABLE
2
UCS
5
7
100
AcDbSymbolTable
70
0
0
ENDTAB
0
TABLE
2
APPID
5
9
100
AcDbSymbolTable
70
2
0
APPID
5
12
100
AcDbSymbolTableRecord
100
AcDbRegAppTableRecord
2
ACAD
70
0
0
ENDTAB
0
TABLE
2
DIMSTYLE
5
A
100
AcDbSymbolTable
70
1
0
ENDTAB
0
TABLE
2
BLOCK_RECORD
5
1
100
AcDbSymbolTable
70
1
0
BLOCK_RECORD
5
1F
100
AcDbSymbolTableRecord
100
AcDbBlockTableRecord
2
*MODEL_SPACE
0
BLOCK_RECORD
5
1B
100
AcDbSymbolTableRecord
100
AcDbBlockTableRecord
2
*PAPER_SPACE
0
ENDTAB
0
ENDSEC
0
SECTION
2
BLOCKS
0
BLOCK
5
20
100
AcDbEntity
100
AcDbBlockBegin
2
*MODEL_SPACE
0
ENDBLK
5
21
100
AcDbEntity
100
AcDbBlockEnd
0
BLOCK
5
1C
100
AcDbEntity
100
AcDbBlockBegin
2
*PAPER_SPACE
0
ENDBLK
5
1D
100
AcDbEntity
100
AcDbBlockEnd
0
ENDSEC
0
SECTION
2
ENTITIES
0
LWPOLYLINE
5
100
100
AcDbEntity
8
0
100
AcDbPolyline
90
116
70
1
43
0.0
10
-1.9508460000000702
20
-97.60000000000008
42
0.41421356237309009
10
-0.95084600000005515
20
-96.600000000000094
10
-0.95084600000006514
20
-3.5742048131841564
42
0.41421356237310009
10
-1.9508460000000505
20
-2.5742048131841311
10
-4.6829778756555704
20
-2.5742048131841311
42
0.13959913241686475
10
-5.2097605632982225
20
-2.7242048131841292
42
-0.13959913241686317
10
-5.7365432509408611
20
-2.8742048131841309
10
-34.022400408086597
20
-2.8742048131841313
10
-34.022400408086597
20
-1.8742048131841313
10
-7.022400408086571
20
-1.8742048131841309
10
-7.022400408086571
20
1.7968629986814695
42
0.41421356237309515
10
-7.7224004080865702
20
2.4968629986814692
10
-66.321913811865414
20
2.4968629986814692
42
0.41421356237308676
10
-67.021913811865403
20
1.7968629986814695
10
-67.021913811865403
20
-1.8742048131841309
10
-40.02191381186541
20
-1.8742048131841309
10
-40.02191381186541
20
-2.8742048131841313
10
-68.682491279434402
20
-2.8742048131841309
42
-0.13959913241685265
10
-69.20927396707701
20
-2.7242048131841479
42
0.13959913241685648
10
-69.736056654719619
20
-2.5742048131841324
10
-82.824626903165409
20
-2.5742048131841311
42
0.13959913241685468
10
-83.351409590808004
20
-2.7242048131841425
42
-0.1395991324168557
10
-83.878192278450598
20
-2.8742048131841278
10
-110.164049435596
20
-2.8742048131841313
10
-110.164049435596
20
-1.8742048131841313
10
-85.164049435596297
20
-1.8742048131841309
10
-85.164049435596297
20
1.7968629986812297
42
0.41421356237309043
10
-85.864049435596414
20
2.4968629986812214
10
-140.46356283937499
20
2.4968629986812392
42
0.41421356237310342
10
-141.163562839375
20
1.7968629986812192
10
-141.163562839375
20
-1.8742048131841313
10
-116.163562839375
20
-1.8742048131841309
10
-116.163562839375
20
-2.8742048131841313
10
-142.824140306944
20
-2.8742048131841309
42
-0.13959913241693778
10
-143.35092299458691
20
-2.7242048131839725
42
0.13959913241673055
10
-143.87770568222899
20
-2.5742048131841342
10
-163.24313543197204
20
-2.5742048131841413
42
0.13959913241692029
10
-163.76991811961511
20
-2.7242048131839574
42
-0.13959913241694455
10
-164.29670080725799
20
-2.8742048131841278
10
-190.58255796440304
20
-2.8742048131841313
10
-190.58255796440304
20
-1.8742048131841313
10
-165.58255796440304
20
-1.8742048131841309
10
-165.58255796440304
20
1.7968629986812297
42
0.41421356237309076
10
-166.282557964403
20
2.4968629986812223
10
-220.837557964404
20
2.496862998681229
42
0.41421356237309503
10
-221.53755796440402
20
1.7968629986812292
10
-221.53755796440402
20
-1.8742048131841313
10
-196.53755796440402
20
-1.8742048131841309
10
-196.53755796440402
20
-2.8742048131841313
10
-222.823415121549
20
-2.8742048131841278
42
-0.13959913241693822
10
-223.35019780919191
20
-2.7242048131839685
42
0.13959913241694288
10
-223.87698049683502
20
-2.5742048131841289
10
-237.34027105570402
20
-2.5742048131841311
42
0.13959913241672067
10
-237.86705374334613
20
-2.724204813183964
42
-0.13959913241690652
10
-238.39383643098901
20
-2.8742048131841278
10
-266.67969358813502
20
-2.8742048131841313
10
-266.67969358813502
20
-1.8742048131841313
10
-239.67969358813502
20
-1.8742048131841309
10
-239.67969358813502
20
1.7968629986814695
42
0.41421356237309503
10
-240.37969358813501
20
2.4968629986814723
10
-298.97920699191297
20
2.496862998681499
42
0.41421356237309054
10
-299.67920699191302
20
1.7968629986814992
10
-299.67920699191302
20
-1.8742048131841309
10
-272.67920699191302
20
-1.8742048131841309
10
-272.67920699191302
20
-2.8742048131841313
10
-300.965064149059
20
-2.8742048131841287
42
-0.13959913241693811
10
-301.49184683670194
20
-2.7242048131839702
42
0.13959913241672972
10
-302.01862952434402
20
-2.574204813184124
10
-304.75076139999999
20
-2.5742048131841311
42
0.41421356237310447
10
-305.75076139999999
20
-3.5742048131841213
10
-305.75076139999999
20
-96.407523214045696
42
0.41421356237310542
10
-304.75076139999999
20
-97.407523214045682
10
-272.67923215534103
20
-97.407523214045696
10
-272.67923215534103
20
-98.799999790620902
10
-304.75076139999999
20
-98.799999790620902
42
0.41421356237310542
10
-305.75076139999999
20
-99.799999790620888
10
-305.75076139999999
20
-125.39951181318409
42
0.41421356237308982
10
-304.75076139999999
20
-126.39951181318409
10
-300.450761400001
20
-126.39951181318409
42
-0.41421356237309503
10
-299.75076140000101
20
-127.09951181318409
10
-299.75076140000101
20
-130.77057962504912
42
0.41421356237307272
10
-299.05076140000108
20
-131.47057962504914
10
-240.37969358813501
20
-131.47057962505011
42
0.41421356237309503
10
-239.67969358813505
20
-130.77057962505012
10
-239.67969358813497
20
-127.09951181318409
42
-0.41421356237310991
10
-238.97969358813501
20
-126.39951181318411
10
-222.237557964404
20
-126.39951181318408
42
-0.41421356237307272
10
-221.53755796440402
20
-127.09951181318409
10
-221.53755796440402
20
-130.77057962504912
42
0.41421356237309503
10
-220.837557964404
20
-131.47057962504911
10
-166.282557964403
20
-131.47057962504908
42
0.41421356237309503
10
-165.58255796440301
20
-130.77057962504912
10
-165.58255796440301
20
-127.09951181318409
42
-0.41421356237307272
10
-164.88255796440299
20
-126.39951181318409
10
-141.86356283937499
20
-126.39951181318408
42
-0.41421356237308021
10
-141.16356283937498
20
-127.09951181318409
10
-141.163562839375
20
-130.77057962504912
42
0.41421356237309503
10
-140.46356283937499
20
-131.47057962504911
10
-85.864049435596414
20
-131.47057962504908
42
0.41421356237309503
10
-85.164049435596411
20
-130.77057962504912
10
-85.164049435596411
20
-127.09951181318409
42
-0.41421356237308021
10
-84.464049435596408
20
-126.39951181318409
10
-67.72191381186542
20
-126.39951181318409
42
-0.41421356237309503
10
-67.021913811865403
20
-127.09951181318409
10
-67.021913811865403
20
-130.77057962505012
42
0.41421356237309503
10
-66.321913811865414
20
-131.47057962505011
10
-7.722400408086596
20
-131.47057962504908
42
0.41421356237308066
10
-7.0224004080865923
20
-130.77057962504912
10
-7.0224004080865932
20
-127.09951181318409
42
-0.41421356237309503
10
-6.3224004080865903
20
-126.39951181318409
10
-1.9508460000000705
20
-126.3995118131851
42
0.41421356237309426
10
-0.9508460000000768
20
-125.39951181318409
10
-0.95084600000008201
20
-99.800000000000097
42
0.4142135623730942
10
-1.9508460000000705
20
-98.800000000000097
10
-34.022395730596401
20
-98.800000000000097
10
-34.022395730596401
20
-97.60000000000008
0
LWPOLYLINE
5
101
100
AcDbEntity
8
0
100
AcDbPolyline
90
4
70
1
43
0.0
10
-190.58255184731303
20
-97.60000000000008
10
-116.16357007372601
20
-97.60000000000008
10
-116.16357007372601
20
-98.800000000000097
10
-190.58255184731303
20
-98.800000000000097
0
LWPOLYLINE
5
102
100
AcDbEntity
8
0
100
AcDbPolyline
90
4
70
1
43
0.0
10
-110.16404331850602
20
-97.60000000000008
10
-40.021916087109403
20
-97.60000000000008
10
-40.021916087109403
20
-98.800000000000097
10
-110.16404331850602
20
-98.800000000000097
0
CIRCLE
5
103
100
AcDbEntity
8
0
100
AcDbCircle
10
-281.935
20
-109.3965853013131
30
0
40
1.6000000000000003
210
0
220
-9.8607613152626476e-32
230
1
0
LWPOLYLINE
5
104
100
AcDbEntity
8
0
100
AcDbPolyline
90
8
70
1
43
0.0
10
-140.80000000000001
20
-62.250000000000085
10
-127.80000000000001
20
-62.250000000000078
42
-0.41421356237309503
10
-127.30000000000001
20
-62.750000000000085
10
-127.30000000000003
20
-75.750000000000085
42
-0.41421356237312101
10
-127.80000000000001
20
-76.250000000000085
10
-140.80000000000001
20
-76.250000000000099
42
-0.41421356237310025
10
-141.30000000000001
20
-75.750000000000085
10
-141.30000000000001
20
-62.750000000000085
42
-0.41421356237311585
0
LWPOLYLINE
5
105
100
AcDbEntity
8
0
100
AcDbPolyline
90
8
70
1
43
0.0
10
-227.8125
20
-57.200000000000088
10
-240.8125
20
-57.200000000000095
42
-0.41421356237313667
10
-241.3125
20
-56.700000000000088
10
-241.3125
20
-43.700000000000081
42
-0.41421356237313667
10
-240.8125
20
-43.200000000000074
10
-227.8125
20
-43.200000000000088
42
-0.41421356237312623
10
-227.3125
20
-43.700000000000081
10
-227.31250000000003
20
-56.700000000000088
42
-0.4142135623730222
0
LWPOLYLINE
5
106
100
AcDbEntity
8
0
100
AcDbPolyline
90
7
70
1
43
0.0
10
-65.387500000000003
20
-24.15000000000008
10
-65.387500000000003
20
-37.650000000000084
42
-0.41421356237310281
10
-65.887500000000017
20
-38.150000000000091
10
-78.887500000000003
20
-38.150000000000077
42
-0.41421356237309503
10
-79.387500000000003
20
-37.650000000000084
10
-79.387500000000017
20
-24.650000000000077
42
-0.41421356237309503
10
-78.887500000000003
20
-24.15000000000007
0
LWPOLYLINE
5
107
100
AcDbEntity
8
0
100
AcDbPolyline
90
8
70
1
43
0.0
10
-118.27500000000001
20
-19.10000000000008
10
-138.41825
20
-19.100000000000069
42
-0.41421356237311324
10
-138.91825
20
-18.600000000000083
10
-138.91825000000003
20
-5.6000000000000805
42
-0.41421356237310542
10
-138.41825
20
-5.1000000000000796
10
-118.27500000000001
20
-5.100000000000076
42
-0.4142135623730937
10
-117.77500000000001
20
-5.6000000000000805
10
-117.77500000000001
20
-18.600000000000083
42
-0.41421356237309243
0
LWPOLYLINE
5
108
100
AcDbEntity
8
0
100
AcDbPolyline
90
22
70
1
43
0.0
10
-173.19375000000002
20
-19.10000000000008
42
0.41421356237302481
10
-173.69374999999997
20
-19.600000000000083
10
-173.69374999999997
20
-20.60000000000008
42
-0.41421356237308204
10
-174.19374999999999
20
-21.10000000000008
10
-184.91825000000003
20
-21.100000000000083
42
-0.41421356237313406
10
-185.41825000000003
20
-20.60000000000008
10
-185.41825000000006
20
-6.6000000000000814
42
-0.41421356237307749
10
-184.91825000000003
20
-6.1000000000000814
10
-172.75575000000001
20
-6.1000000000000707
42
0.41421356237307749
10
-172.25574999999998
20
-5.6000000000000805
42
-0.41421356237302542
10
-171.75575000000003
20
-5.1000000000000796
10
-158.75575000000001
20
-5.100000000000076
42
-0.4142135623730937
10
-158.25575000000001
20
-5.6000000000000805
42
0.41421356237307422
10
-157.75575000000001
20
-6.1000000000000876
10
-150.31774999999999
20
-6.1000000000000956
42
-0.41421356237311391
10
-149.81775000000002
20
-6.6000000000000814
10
-149.81774999999999
20
-20.60000000000008
42
-0.41421356237310802
10
-150.31774999999999
20
-21.10000000000008
10
-156.31774999999999
20
-21.100000000000087
42
-0.41421356237307422
10
-156.81774999999999
20
-20.60000000000008
10
-156.81774999999999
20
-19.600000000000083
42
0.41421356237309503
10
-157.31774999999999
20
-19.100000000000076
0
LWPOLYLINE
5
109
100
AcDbEntity
8
0
100
AcDbPolyline
90
23
70
1
43
0.0
10
-86.81825000000002
20
-5.6000000000000805
42
0.41421356237307422
10
-86.318250000000006
20
-6.1000000000000876
10
-78.880250000000004
20
-6.1000000000000814
42
-0.41421356237309631
10
-78.380250000000004
20
-6.6000000000000814
10
-78.380250000000004
20
-20.599375390509582
42
-0.4289228948617298
10
-78.905218801049202
20
-21.098751560319645
10
-78.880250000000004
20
-21.100000000000083
10
-84.91825
20
-21.100000000000094
42
-0.41421356237307683
10
-85.418250000000015
20
-20.60000000000008
10
-85.418250000000015
20
-19.600000000000083
42
0.41421356237309503
10
-85.91825
20
-19.100000000000076
10
-101.75624999999999
20
-19.10000000000008
42
0.41421356237309503
10
-102.25625000000001
20
-19.600000000000083
10
-102.25624999999999
20
-20.60000000000008
42
-0.41421356237308721
10
-102.75624999999999
20
-21.10000000000008
10
-108.75624999999999
20
-21.100000000000062
42
-0.41421356237311063
10
-109.25624999999998
20
-20.60000000000008
10
-109.25625000000002
20
-6.6000000000000814
42
-0.41421356237310542
10
-108.75624999999999
20
-6.1000000000000814
10
-101.31825000000001
20
-6.1000000000000814
42
0.41421356237307422
10
-100.81825000000003
20
-5.6000000000000805
42
-0.41421356237310542
10
-100.31825000000001
20
-5.1000000000000796
10
-87.318250000000006
20
-5.1000000000001089
42
-0.41421356237310542
0
LWPOLYLINE
5
110
100
AcDbEntity
8
0
100
AcDbPolyline
90
24
70
1
43
0.0
10
-6.9432500000000008
20
-23.650000000000077
42
0.41421356237309503
10
-6.4432500000000008
20
-24.15000000000008
10
-6.3562500000000011
20
-24.15000000000008
42
-0.41421356237309503
10
-5.8562500000000011
20
-24.650000000000077
10
-5.8562499999999975
20
-37.650000000000084
42
-0.41421356237309309
10
-6.3562500000000011
20
-38.150000000000091
10
-40.787499999999994
20
-38.150000000000084
42
-0.41421356237309243
10
-41.287500000000009
20
-37.650000000000084
10
-41.287500000000009
20
-24.650000000000077
42
-0.41421356237309503
10
-40.787500000000001
20
-24.15000000000007
10
-38.319249999999997
20
-24.15000000000008
42
0.41421356237309503
10
-37.819250000000004
20
-23.650000000000077
10
-37.819250000000004
20
-22.65000000000008
42
-0.41421356237309503
10
-37.319249999999997
20
-22.150000000000073
10
-31.319250000000004
20
-22.150000000000084
42
-0.41421356237309503
10
-30.819250000000004
20
-22.65000000000008
10
-30.81925
20
-23.650000000000077
42
0.41421356237309503
10
-30.319250000000004
20
-24.150000000000077
10
-14.443250000000001
20
-24.15000000000008
42
0.41421356237309503
10
-13.943250000000003
20
-23.650000000000077
10
-13.943250000000006
20
-22.650000000000084
42
-0.4142135623730937
10
-13.443250000000003
20
-22.150000000000073
10
-7.4432499999999999
20
-22.150000000000077
42
-0.41421356237309503
10
-6.9432499999999999
20
-22.65000000000008
0
LWPOLYLINE
5
111
100
AcDbEntity
8
0
100
AcDbPolyline
90
24
70
1
43
0.0
10
-283.58800000000002
20
-81.300000000000097
42
0.41421356237310542
10
-283.08800000000008
20
-80.800000000000097
10
-283.08800000000008
20
-79.800000000000097
42
-0.41421356237307944
10
-282.58800000000002
20
-79.300000000000082
10
-276.58800000000002
20
-79.300000000000082
42
-0.41421356237313145
10
-276.08800000000002
20
-79.800000000000082
10
-276.08800000000002
20
-80.800000000000097
42
0.41421356237310542
10
-275.58800000000008
20
-81.300000000000111
10
-259.71199999999999
20
-81.300000000000097
42
0.41421356237313667
10
-259.21199999999999
20
-80.800000000000097
10
-259.21199999999999
20
-79.800000000000097
42
-0.41421356237302737
10
-258.71199999999999
20
-79.300000000000082
10
-252.71199999999999
20
-79.300000000000097
42
-0.41421356237312101
10
-252.21199999999999
20
-79.800000000000082
10
-252.21199999999999
20
-80.800000000000097
42
0.41421356237310542
10
-251.71199999999999
20
-81.300000000000111
10
-251.625
20
-81.300000000000097
42
-0.4142135623730846
10
-251.125
20
-81.800000000000082
10
-251.125
20
-94.800000000000097
42
-0.41421356237304302
10
-251.625
20
-95.300000000000082
10
-283.67500000000001
20
-95.300000000000097
42
-0.41421356237309503
10
-284.17500000000007
20
-94.800000000000097
10
-284.17500000000007
20
-81.800000000000082
42
-0.41421356237307422
10
-283.67500000000001
20
-81.300000000000097
0
LWPOLYLINE
5
112
100
AcDbEntity
8
0
100
AcDbPolyline
90
48
70
1
43
0.0
10
-280.20675
20
-41.200000000000081
10
-274.20675000000006
20
-41.200000000000102
42
-0.41421356237312623
10
-273.70675
20
-41.700000000000088
10
-273.70675
20
-43.787000000000084
42
0.4142135623730222
10
-273.20675
20
-44.287000000000106
10
-272.76875000000007
20
-44.287000000000077
42
0.4142135623730222
10
-272.26875000000007
20
-43.787000000000084
10
-272.26875000000007
20
-43.700000000000081
42
-0.41421356237312623
10
-271.76875000000001
20
-43.200000000000074
10
-257.33075000000002
20
-43.200000000000081
42
0.41421356237307422
10
-256.83074999999997
20
-42.700000000000088
10
-256.83075000000008
20
-41.700000000000088
42
-0.41421356237312623
10
-256.33075000000008
20
-41.200000000000081
10
-250.33074999999999
20
-41.200000000000081
42
-0.41421356237313667
10
-249.83074999999999
20
-41.700000000000088
10
-249.83074999999999
20
-42.700000000000088
42
0.4142135623730222
10
-249.33075000000002
20
-43.200000000000109
10
-246.86250000000001
20
-43.200000000000088
42
-0.41421356237312623
10
-246.36250000000001
20
-43.700000000000081
10
-246.36250000000004
20
-56.700000000000088
42
-0.4142135623730222
10
-246.86250000000001
20
-57.200000000000088
10
-267.29374999999999
20
-57.200000000000088
42
0.41421356237307422
10
-267.79375000000005
20
-57.700000000000088
10
-267.79375000000005
20
-61.750000000000085
42
0.41421356237307422
10
-267.29374999999999
20
-62.250000000000057
10
-265.91250000000002
20
-62.250000000000099
42
-0.41421356237312101
10
-265.41250000000002
20
-62.750000000000085
10
-265.41250000000002
20
-75.750000000000085
42
-0.4142135623730222
10
-265.91250000000002
20
-76.250000000000085
10
-278.91250000000002
20
-76.250000000000085
42
-0.41421356237313667
10
-279.41250000000002
20
-75.750000000000085
10
-279.41250000000002
20
-75.663000000000082
42
0.41421356237307422
10
-279.91250000000002
20
-75.16300000000011
10
-280.29375000000005
20
-75.163000000000068
42
-0.41421356237312101
10
-280.79375000000005
20
-74.663000000000082
10
-280.79374999999999
20
-68.663000000000082
42
-0.4142135623730222
10
-280.29375000000005
20
-68.163000000000082
10
-279.91250000000002
20
-68.163000000000082
42
0.41421356237307422
10
-279.41250000000002
20
-67.663000000000082
10
-279.41250000000002
20
-67.22500000000008
42
0.41421356237307422
10
-279.91250000000002
20
-66.725000000000108
10
-281.29374999999999
20
-66.72500000000008
42
-0.41421356237313667
10
-281.79374999999999
20
-66.22500000000008
10
-281.79375000000005
20
-53.225000000000087
42
-0.41421356237307422
10
-281.29374999999999
20
-52.725000000000087
10
-281.20675
20
-52.725000000000087
42
0.41421356237307422
10
-280.70675
20
-52.22500000000008
10
-280.70675
20
-41.700000000000088
42
-0.41421356237309503
0
LWPOLYLINE
5
113
100
AcDbEntity
8
0
100
AcDbPolyline
90
8
70
1
43
0.0
10
-174.92500000000004
20
-110.3750000000001
10
-174.92500000000001
20
-123.37500000000009
42
-0.41421356237313667
10
-175.42500000000001
20
-123.8750000000001
10
-188.42500000000001
20
-123.87500000000011
42
-0.41421356237310542
10
-188.92500000000001
20
-123.37500000000009
10
-188.92500000000007
20
-110.3750000000001
42
-0.4142135623730846
10
-188.42500000000001
20
-109.8750000000001
10
-175.42500000000001
20
-109.87500000000013
42
-0.41421356237309503
0
LWPOLYLINE
5
114
100
AcDbEntity
8
0
100
AcDbPolyline
90
8
70
1
43
0.0
10
-89.700000000000003
20
-123.8750000000001
10
-102.70000000000002
20
-123.8750000000001
42
-0.41421356237307422
10
-103.20000000000002
20
-123.37500000000009
10
-103.20000000000002
20
-110.3750000000001
42
-0.4142135623730534
10
-102.70000000000002
20
-109.8750000000001
10
-89.700000000000003
20
-109.8750000000001
42
-0.4142135623730534
10
-89.200000000000003
20
-110.3750000000001
10
-89.200000000000003
20
-123.37500000000009
42
-0.41421356237307422
0
LWPOLYLINE
5
115
100
AcDbEntity
8
0
100
AcDbPolyline
90
8
70
1
43
0.0
10
-3.4750000000000005
20
-110.3750000000001
10
-3.4750000000000107
20
-123.37500000000009
42
-0.41421356237310542
10
-3.9750000000000001
20
-123.8750000000001
10
-16.975000000000001
20
-123.8750000000001
42
-0.41421356237309243
10
-17.475000000000001
20
-123.37500000000009
10
-17.475000000000005
20
-110.3750000000001
42
-0.41421356237307161
10
-16.975000000000001
20
-109.8750000000001
10
-3.9749999999999996
20
-109.8750000000001
42
-0.41421356237307388
0
LWPOLYLINE
5
116
100
AcDbEntity
8
0
100
AcDbPolyline
90
8
70
1
43
0.0
10
-32.049999999999997
20
-62.750000000000085
10
-32.049999999999997
20
-75.750000000000085
42
-0.41421356237309764
10
-32.549999999999997
20
-76.250000000000085
10
-45.549999999999997
20
-76.250000000000085
42
-0.41421356237310542
10
-46.049999999999997
20
-75.750000000000085
10
-46.049999999999997
20
-62.750000000000085
42
-0.41421356237309503
10
-45.549999999999997
20
-62.250000000000085
10
-32.549999999999997
20
-62.250000000000085
42
-0.41421356237309503
0
LWPOLYLINE
5
117
100
AcDbEntity
8
0
100
AcDbPolyline
90
8
70
1
43
0.0
10
-70.150000000000006
20
-62.750000000000085
10
-70.15000000000002
20
-75.750000000000085
42
-0.41421356237310542
10
-70.650000000000006
20
-76.250000000000085
10
-83.649999999999977
20
-76.250000000000099
42
-0.41421356237307944
10
-84.150000000000006
20
-75.750000000000085
10
-84.149999999999991
20
-62.750000000000085
42
-0.41421356237310025
10
-83.650000000000006
20
-62.250000000000085
10
-70.650000000000006
20
-62.250000000000078
42
-0.41421356237309503
0
LWPOLYLINE
5
118
100
AcDbEntity
8
0
100
AcDbPolyline
90
8
70
1
43
0.0
10
-108.75
20
-76.250000000000085
10
-121.75
20
-76.250000000000099
42
-0.41421356237310025
10
-122.25000000000001
20
-75.750000000000085
10
-122.25000000000001
20
-62.750000000000085
42
-0.41421356237311585
10
-121.75
20
-62.250000000000085
10
-108.75
20
-62.250000000000078
42
-0.41421356237309503
10
-108.25
20
-62.750000000000085
10
-108.25000000000001
20
-75.750000000000085
42
-0.41421356237312101
0
LWPOLYLINE
5
119
100
AcDbEntity
8
0
100
AcDbPolyline
90
8
70
1
43
0.0
10
-146.34999999999999
20
-62.750000000000085
10
-146.35000000000002
20
-75.750000000000085
42
-0.41421356237310542
10
-146.84999999999999
20
-76.250000000000085
10
-159.84999999999999
20
-76.250000000000085
42
-0.41421356237311585
10
-160.34999999999999
20
-75.750000000000085
10
-160.34999999999999
20
-62.750000000000085
42
-0.41421356237303258
10
-159.84999999999999
20
-62.250000000000085
10
-146.84999999999999
20
-62.250000000000078
42
-0.41421356237307422
0
LWPOLYLINE
5
120
100
AcDbEntity
8
0
100
AcDbPolyline
90
8
70
1
43
0.0
10
-184.44999999999999
20
-62.750000000000085
10
-184.44999999999996
20
-75.750000000000085
42
-0.41421356237307422
10
-184.95000000000002
20
-76.250000000000085
10
-197.95000000000002
20
-76.250000000000071
42
-0.41421356237312623
10
-198.45000000000002
20
-75.750000000000085
10
-198.44999999999999
20
-62.750000000000085
42
-0.4142135623730222
10
-197.95000000000002
20
-62.250000000000085
10
-184.95000000000002
20
-62.250000000000085
42
-0.41421356237313145
0
LWPOLYLINE
5
121
100
AcDbEntity
8
0
100
AcDbPolyline
90
8
70
1
43
0.0
10
-232.07499999999999
20
-81.800000000000082
10
-232.07499999999999
20
-94.800000000000097
42
-0.41421356237304302
10
-232.57499999999999
20
-95.300000000000082
10
-245.57500000000002
20
-95.300000000000097
42
-0.41421356237309503
10
-246.07500000000002
20
-94.800000000000097
10
-246.07500000000002
20
-81.800000000000082
42
-0.41421356237307422
10
-245.57500000000002
20
-81.300000000000097
10
-232.57499999999999
20
-81.300000000000097
42
-0.4142135623730846
0
LWPOLYLINE
5
122
100
AcDbEntity
8
0
100
AcDbPolyline
90
8
70
1
43
0.0
10
-208.26250000000002
20
-43.700000000000081
10
-208.26250000000002
20
-56.700000000000088
42
-0.4142135623730222
10
-208.76249999999999
20
-57.200000000000088
10
-221.76249999999999
20
-57.200000000000095
42
-0.41421356237313667
10
-222.26249999999999
20
-56.700000000000088
10
-222.26249999999999
20
-43.700000000000081
42
-0.41421356237313667
10
-221.76249999999999
20
-43.200000000000074
10
-208.76249999999999
20
-43.200000000000131
42
-0.41421356237312623
0
LWPOLYLINE
5
123
100
AcDbEntity
8
0
100
AcDbPolyline
90
8
70
1
43
0.0
10
-132.0625
20
-43.700000000000081
10
-132.06250000000003
20
-56.700000000000088
42
-0.41421356237312101
10
-132.5625
20
-57.200000000000088
10
-145.5625
20
-57.200000000000102
42
-0.41421356237307944
10
-146.0625
20
-56.700000000000088
10
-146.0625
20
-43.700000000000081
42
-0.41421356237307944
10
-145.5625
20
-43.200000000000074
10
-132.5625
20
-43.200000000000067
42
-0.41421356237310025
0
LWPOLYLINE
5
124
100
AcDbEntity
8
0
100
AcDbPolyline
90
8
70
1
43
0.0
10
-55.862499999999997
20
-43.700000000000081
10
-55.862500000000004
20
-56.700000000000088
42
-0.41421356237310542
10
-56.362500000000004
20
-57.200000000000088
10
-69.362499999999997
20
-57.200000000000088
42
-0.41421356237309503
10
-69.862499999999997
20
-56.700000000000088
10
-69.862499999999997
20
-43.700000000000081
42
-0.41421356237311063
10
-69.362499999999997
20
-43.200000000000074
10
-56.362500000000004
20
-43.200000000000074
42
-0.41421356237310542
0
LWPOLYLINE
5
125
100
AcDbEntity
8
0
100
AcDbPolyline
90
8
70
1
43
0.0
10
-260.64999999999998
20
-110.3750000000001
42
0.41421356237309503
10
-261.14999999999998
20
-109.8750000000001
10
-274.14999999999998
20
-109.8750000000001
42
0.4142135623730846
10
-274.64999999999998
20
-110.3750000000001
10
-274.64999999999998
20
-123.37500000000009
42
0.41421356237310542
10
-274.14999999999998
20
-123.8750000000001
10
-261.14999999999998
20
-123.8750000000001
42
0.41421356237313667
10
-260.64999999999998
20
-123.37500000000009
0
LWPOLYLINE
5
126
100
AcDbEntity
8
0
100
AcDbPolyline
90
8
70
1
43
0.0
10
-289.22500000000002
20
-43.700000000000081
10
-289.22500000000008
20
-56.700000000000088
42
-0.4142135623730222
10
-289.72500000000002
20
-57.200000000000088
10
-302.72500000000002
20
-57.200000000000095
42
-0.41421356237313667
10
-303.22500000000002
20
-56.700000000000088
10
-303.22500000000002
20
-43.700000000000081
42
-0.41421356237313667
10
-302.72500000000002
20
-43.200000000000074
10
-289.72500000000002
20
-43.200000000000088
42
-0.41421356237312623
0
LWPOLYLINE
5
127
100
AcDbEntity
8
0
100
AcDbPolyline
90
8
70
1
43
0.0
10
-251.125
20
-5.6000000000000805
10
-251.12499999999997
20
-18.600000000000083
42
-0.41421356237312362
10
-251.625
20
-19.10000000000009
10
-264.625
20
-19.100000000000087
42
-0.41421356237313406
10
-265.125
20
-18.600000000000083
10
-265.125
20
-5.6000000000000805
42
-0.41421356237313273
10
-264.625
20
-5.1000000000000734
10
-251.625
20
-5.1000000000000618
42
-0.41421356237310153
0
LWPOLYLINE
5
128
100
AcDbEntity
8
0
100
AcDbPolyline
90
8
70
1
43
0.0
10
-270.17500000000001
20
-24.650000000000077
10
-270.17500000000001
20
-37.650000000000084
42
-0.41421356237310281
10
-270.67500000000001
20
-38.150000000000091
10
-283.67500000000001
20
-38.150000000000084
42
-0.41421356237313406
10
-284.17500000000007
20
-37.650000000000084
10
-284.17500000000007
20
-24.650000000000077
42
-0.41421356237313145
10
-283.67500000000001
20
-24.15000000000007
10
-270.67500000000001
20
-24.150000000000063
42
-0.41421356237310025
0
LWPOLYLINE
5
129
100
AcDbEntity
8
0
100
AcDbPolyline
90
8
70
1
43
0.0
10
-179.6875
20
-24.650000000000077
10
-179.6875
20
-37.650000000000084
42
-0.41421356237313406
10
-180.1875
20
-38.150000000000091
10
-193.1875
20
-38.150000000000105
42
-0.41421356237310281
10
-193.68750000000003
20
-37.650000000000084
10
-193.68750000000003
20
-24.650000000000077
42
-0.41421356237310025
10
-193.1875
20
-24.15000000000007
10
-180.1875
20
-24.15000000000008
42
-0.41421356237313145
0
LWPOLYLINE
5
130
100
AcDbEntity
8
0
100
AcDbPolyline
90
8
70
1
43
0.0
10
-30.168750000000003
20
-19.10000000000008
10
-50.3125
20
-19.100000000000087
42
-0.41421356237309764
10
-50.8125
20
-18.600000000000083
10
-50.8125
20
-5.6000000000000805
42
-0.41421356237309631
10
-50.3125
20
-5.1000000000000796
10
-30.168750000000003
20
-5.1000000000000822
42
-0.41421356237309503
10
-29.668750000000003
20
-5.6000000000000805
10
-29.668750000000003
20
-18.600000000000083
42
-0.41421356237309503
0
LWPOLYLINE
5
131
100
AcDbEntity
8
0
100
AcDbPolyline
90
15
70
1
43
0.0
10
-67.981250000000003
20
-6.1000000000000814
42
0.41421356237309631
10
-67.481250000000017
20
-5.6000000000000805
42
-0.41421356237310281
10
-66.981250000000017
20
-5.1000000000000734
10
-53.981250000000003
20
-5.1000000000000796
42
-0.41421356237309631
10
-53.481250000000003
20
-5.6000000000000805
10
-53.481249999999996
20
-18.600000000000083
42
-0.41421356237310542
10
-53.981250000000003
20
-19.10000000000009
10
-63.625000000000007
20
-19.10000000000008
42
0.41421356237309631
10
-64.125
20
-19.600000000000083
10
-64.125000000000014
20
-20.60000000000008
42
-0.41421356237309764
10
-64.625
20
-21.10000000000008
10
-70.625
20
-21.100000000000083
42
-0.41421356237309764
10
-71.125
20
-20.60000000000008
10
-71.125
20
-6.6000000000000814
42
-0.41421356237309631
10
-70.625
20
-6.1000000000000814
0
LWPOLYLINE
5
132
100
AcDbEntity
8
0
100
AcDbPolyline
90
8
70
1
43
0.0
10
-122.53749999999999
20
-24.650000000000077
10
-122.53749999999999
20
-37.650000000000084
42
-0.41421356237309503
10
-123.03750000000001
20
-38.150000000000091
10
-136.03749999999999
20
-38.150000000000091
42
-0.41421356237307422
10
-136.53749999999999
20
-37.650000000000084
10
-136.53749999999999
20
-24.650000000000077
42
-0.41421356237307161
10
-136.03749999999999
20
-24.15000000000007
10
-123.03750000000001
20
-24.150000000000077
42
-0.41421356237309243
0
LWPOLYLINE
5
133
100
AcDbEntity
8
0
100
AcDbPolyline
90
8
70
1
43
0.0
10
-103.48750000000001
20
-24.650000000000077
10
-103.48749999999998
20
-37.650000000000084
42
-0.41421356237309503
10
-103.9875
20
-38.150000000000091
10
-116.98750000000001
20
-38.150000000000091
42
-0.41421356237309503
10
-117.48750000000001
20
-37.650000000000084
10
-117.48750000000001
20
-24.650000000000077
42
-0.41421356237309243
10
-116.98750000000001
20
-24.15000000000007
10
-103.9875
20
-24.150000000000095
42
-0.41421356237309243
0
LWPOLYLINE
5
134
100
AcDbEntity
8
0
100
AcDbPolyline
90
8
70
1
43
0.0
10
-6.3562500000000011
20
-19.10000000000008
10
-21.737500000000001
20
-19.100000000000083
42
-0.41421356237309631
10
-22.237499999999997
20
-18.600000000000083
10
-22.237499999999997
20
-5.6000000000000805
42
-0.41421356237309503
10
-21.737500000000001
20
-5.1000000000000796
10
-6.3562500000000011
20
-5.1000000000000796
42
-0.4142135623730937
10
-5.8562500000000011
20
-5.6000000000000805
10
-5.8562500000000037
20
-18.600000000000083
42
-0.41421356237309698
0
LWPOLYLINE
5
135
100
AcDbEntity
8
0
100
AcDbPolyline
90
8
70
1
43
0.0
10
-198.73750000000001
20
-24.650000000000077
10
-198.73750000000001
20
-37.650000000000084
42
-0.41421356237313406
10
-199.23750000000001
20
-38.150000000000091
10
-212.23750000000001
20
-38.150000000000105
42
-0.41421356237310281
10
-212.73750000000004
20
-37.650000000000084
10
-212.73750000000004
20
-24.650000000000077
42
-0.41421356237310025
10
-212.23750000000001
20
-24.15000000000007
10
-199.23750000000001
20
-24.15000000000008
42
-0.41421356237313145
0
LWPOLYLINE
5
136
100
AcDbEntity
8
0
100
AcDbPolyline
90
8
70
1
43
0.0
10
-289.22500000000002
20
-24.650000000000077
10
-289.22500000000002
20
-37.650000000000084
42
-0.41421356237310281
10
-289.72500000000002
20
-38.150000000000091
10
-302.72500000000002
20
-38.150000000000084
42
-0.41421356237313406
10
-303.22500000000002
20
-37.650000000000084
10
-303.22500000000002
20
-24.650000000000077
42
-0.41421356237313145
10
-302.72500000000002
20
-24.15000000000007
10
-289.72500000000002
20
-24.150000000000063
42
-0.41421356237310025
0
LWPOLYLINE
5
137
100
AcDbEntity
8
0
100
AcDbPolyline
90
8
70
1
43
0.0
10
-270.17500000000001
20
-5.6000000000000805
10
-270.17499999999995
20
-18.600000000000083
42
-0.41421356237312362
10
-270.67500000000001
20
-19.10000000000009
10
-283.67500000000001
20
-19.100000000000087
42
-0.41421356237313406
10
-284.17500000000007
20
-18.600000000000083
10
-284.17500000000007
20
-5.6000000000000805
42
-0.41421356237313273
10
-283.67500000000001
20
-5.1000000000000734
10
-270.67500000000001
20
-5.1000000000000618
42
-0.41421356237310153
0
LWPOLYLINE
5
138
100
AcDbEntity
8
0
100
AcDbPolyline
90
8
70
1
43
0.0
10
-289.22500000000002
20
-62.750000000000085
10
-289.22500000000008
20
-75.750000000000085
42
-0.4142135623730222
10
-289.72500000000002
20
-76.250000000000085
10
-302.72500000000002
20
-76.250000000000085
42
-0.41421356237313667
10
-303.22500000000002
20
-75.750000000000085
10
-303.22500000000008
20
-62.750000000000085
42
-0.41421356237307422
10
-302.72500000000002
20
-62.250000000000085
10
-289.72500000000002
20
-62.250000000000099
42
-0.41421356237312101
0
LWPOLYLINE
5
139
100
AcDbEntity
8
0
100
AcDbPolyline
90
8
70
1
43
0.0
10
-289.22500000000002
20
-110.3750000000001
10
-289.22500000000008
20
-123.37500000000009
42
-0.41421356237310542
10
-289.72500000000002
20
-123.8750000000001
10
-302.72500000000002
20
-123.8750000000001
42
-0.41421356237313667
10
-303.22500000000002
20
-123.37500000000009
10
-303.22500000000002
20
-110.3750000000001
42
-0.41421356237309503
10
-302.72500000000002
20
-109.8750000000001
10
-289.72500000000002
20
-109.87500000000011
42
-0.4142135623730846
0
LWPOLYLINE
5
140
100
AcDbEntity
8
0
100
AcDbPolyline
90
8
70
1
43
0.0
10
-36.8125
20
-43.700000000000081
10
-36.8125
20
-56.700000000000088
42
-0.41421356237309764
10
-37.3125
20
-57.200000000000088
10
-50.3125
20
-57.200000000000088
42
-0.41421356237310542
10
-50.8125
20
-56.700000000000088
10
-50.812500000000007
20
-43.700000000000081
42
-0.41421356237311585
10
-50.3125
20
-43.200000000000074
10
-37.3125
20
-43.200000000000088
42
-0.41421356237309764
0
LWPOLYLINE
5
141
100
AcDbEntity
8
0
100
AcDbPolyline
90
8
70
1
43
0.0
10
-113.01250000000002
20
-43.700000000000081
10
-113.01250000000002
20
-56.700000000000088
42
-0.41421356237312101
10
-113.5125
20
-57.200000000000088
10
-126.51250000000002
20
-57.200000000000102
42
-0.41421356237310025
10
-127.01250000000002
20
-56.700000000000088
10
-127.01250000000002
20
-43.700000000000081
42
-0.41421356237310025
10
-126.51250000000002
20
-43.200000000000074
10
-113.5125
20
-43.200000000000081
42
-0.41421356237310025
0
LWPOLYLINE
5
142
100
AcDbEntity
8
0
100
AcDbPolyline
90
8
70
1
43
0.0
10
-189.21250000000001
20
-43.700000000000081
10
-189.21249999999998
20
-56.700000000000088
42
-0.41421356237307422
10
-189.71250000000001
20
-57.200000000000088
10
-202.71250000000003
20
-57.200000000000074
42
-0.41421356237312623
10
-203.21250000000003
20
-56.700000000000088
10
-203.21250000000006
20
-43.700000000000081
42
-0.41421356237312623
10
-202.71250000000003
20
-43.200000000000074
10
-189.71250000000001
20
-43.200000000000074
42
-0.41421356237313667
0
LWPOLYLINE
5
143
100
AcDbEntity
8
0
100
AcDbPolyline
90
8
70
1
43
0.0
10
-222.55000000000001
20
-62.750000000000085
10
-222.54999999999998
20
-75.750000000000085
42
-0.41421356237307422
10
-223.05000000000004
20
-76.250000000000085
10
-236.05000000000004
20
-76.250000000000071
42
-0.41421356237312623
10
-236.55000000000004
20
-75.750000000000085
10
-236.55000000000001
20
-62.750000000000085
42
-0.4142135623730222
10
-236.05000000000004
20
-62.250000000000085
10
-223.05000000000004
20
-62.250000000000085
42
-0.41421356237313145
0
LWPOLYLINE
5
144
100
AcDbEntity
8
0
100
AcDbPolyline
90
8
70
1
43
0.0
10
-193.97500000000002
20
-81.800000000000082
10
-193.97500000000002
20
-94.800000000000097
42
-0.41421356237307422
10
-194.47500000000002
20
-95.300000000000082
10
-207.47500000000002
20
-95.300000000000082
42
-0.4142135623730846
10
-207.97500000000002
20
-94.800000000000097
10
-207.97500000000002
20
-81.800000000000082
42
-0.41421356237304302
10
-207.47500000000002
20
-81.300000000000097
10
-194.47500000000002
20
-81.300000000000082
42
-0.41421356237309503
0
LWPOLYLINE
5
145
100
AcDbEntity
8
0
100
AcDbPolyline
90
8
70
1
43
0.0
10
-155.875
20
-81.800000000000082
10
-155.87500000000003
20
-94.800000000000097
42
-0.41421356237309503
10
-156.375
20
-95.300000000000082
10
-169.375
20
-95.300000000000082
42
-0.4142135623730846
10
-169.875
20
-94.800000000000097
10
-169.875
20
-81.800000000000082
42
-0.41421356237304302
10
-169.375
20
-81.300000000000097
10
-156.375
20
-81.300000000000082
42
-0.4142135623730534
0
LWPOLYLINE
5
146
100
AcDbEntity
8
0
100
AcDbPolyline
90
8
70
1
43
0.0
10
-117.77500000000001
20
-81.800000000000082
42
0.41421356237307422
10
-118.27500000000001
20
-81.300000000000082
10
-131.27500000000001
20
-81.300000000000097
42
0.41421356237312623
10
-131.77500000000003
20
-81.800000000000082
10
-131.77500000000003
20
-94.800000000000097
42
0.41421356237307422
10
-131.27500000000001
20
-95.300000000000082
10
-118.27500000000001
20
-95.300000000000082
42
0.41421356237312623
10
-117.77500000000002
20
-94.800000000000097
0
LWPOLYLINE
5
147
100
AcDbEntity
8
0
100
AcDbPolyline
90
8
70
1
43
0.0
10
-79.674999999999997
20
-81.800000000000082
10
-79.674999999999997
20
-94.800000000000097
42
-0.41421356237310542
10
-80.174999999999997
20
-95.300000000000082
10
-93.175000000000011
20
-95.300000000000097
42
-0.4142135623730534
10
-93.675000000000011
20
-94.800000000000097
10
-93.674999999999997
20
-81.800000000000082
42
-0.41421356237309503
10
-93.175000000000011
20
-81.300000000000097
10
-80.174999999999997
20
-81.300000000000097
42
-0.41421356237310542
0
LWPOLYLINE
5
148
100
AcDbEntity
8
0
100
AcDbPolyline
90
8
70
1
43
0.0
10
-41.575000000000003
20
-81.800000000000082
10
-41.575000000000003
20
-94.800000000000068
42
-0.41421356237310025
10
-42.075000000000003
20
-95.300000000000082
10
-55.075000000000003
20
-95.300000000000082
42
-0.41421356237310542
10
-55.575000000000003
20
-94.800000000000097
10
-55.57500000000001
20
-81.800000000000082
42
-0.41421356237310542
10
-55.075000000000003
20
-81.300000000000097
10
-42.075000000000003
20
-81.300000000000097
42
-0.41421356237310025
0
LWPOLYLINE
5
149
100
AcDbEntity
8
0
100
AcDbPolyline
90
8
70
1
43
0.0
10
-3.4750000000000005
20
-81.800000000000082
10
-3.4750000000000041
20
-94.800000000000097
42
-0.41421356237309892
10
-3.9750000000000001
20
-95.300000000000082
10
-16.975000000000001
20
-95.300000000000097
42
-0.41421356237307161
10
-17.475000000000001
20
-94.800000000000097
10
-17.475000000000016
20
-81.800000000000082
42
-0.41421356237308721
10
-16.975000000000001
20
-81.300000000000097
10
-3.9749999999999996
20
-81.300000000000082
42
-0.41421356237307388
0
LWPOLYLINE
5
150
100
AcDbEntity
8
0
100
AcDbPolyline
90
8
70
1
43
0.0
10
-70.150000000000006
20
-110.3750000000001
10
-70.15000000000002
20
-123.37500000000009
42
-0.41421356237310542
10
-70.650000000000006
20
-123.8750000000001
10
-83.650000000000006
20
-123.8750000000001
42
-0.41421356237307422
10
-84.150000000000006
20
-123.37500000000009
10
-84.150000000000006
20
-110.3750000000001
42
-0.4142135623730534
10
-83.650000000000006
20
-109.8750000000001
10
-70.650000000000006
20
-109.87500000000011
42
-0.41421356237310542
0
LWPOLYLINE
5
151
100
AcDbEntity
8
0
100
AcDbPolyline
90
8
70
1
43
0.0
10
-156.375
20
-123.8750000000001
10
-169.375
20
-123.87500000000011
42
-0.41421356237310542
10
-169.875
20
-123.37500000000009
10
-169.87500000000006
20
-110.3750000000001
42
-0.4142135623730846
10
-169.375
20
-109.8750000000001
10
-156.375
20
-109.8750000000001
42
-0.4142135623730534
10
-155.875
20
-110.3750000000001
10
-155.875
20
-123.37500000000009
42
-0.41421356237307422
0
LWPOLYLINE
5
152
100
AcDbEntity
8
0
100
AcDbPolyline
90
8
70
1
43
0.0
10
-203.5
20
-110.3750000000001
10
-203.5
20
-123.37500000000009
42
-0.41421356237313667
10
-204.00000000000003
20
-123.8750000000001
10
-217.00000000000003
20
-123.87500000000011
42
-0.41421356237310542
10
-217.50000000000003
20
-123.37500000000009
10
-217.50000000000006
20
-110.3750000000001
42
-0.4142135623730846
10
-217.00000000000003
20
-109.8750000000001
10
-204.00000000000003
20
-109.8750000000001
42
-0.41421356237309503
0
LWPOLYLINE
5
153
100
AcDbEntity
8
0
100
AcDbPolyline
90
8
70
1
43
0.0
10
-117.77500000000002
20
-110.3750000000001
10
-117.77500000000001
20
-123.37500000000009
42
-0.41421356237309503
10
-118.27500000000001
20
-123.8750000000001
10
-131.27500000000001
20
-123.8750000000001
42
-0.41421356237309503
10
-131.77500000000003
20
-123.37500000000009
10
-131.77500000000003
20
-110.3750000000001
42
-0.41421356237307422
10
-131.27500000000001
20
-109.8750000000001
10
-118.27500000000001
20
-109.87500000000011
42
-0.41421356237307422
0
LWPOLYLINE
5
154
100
AcDbEntity
8
0
100
AcDbPolyline
90
8
70
1
43
0.0
10
-32.049999999999997
20
-110.3750000000001
10
-32.050000000000011
20
-123.37500000000009
42
-0.41421356237310542
10
-32.549999999999997
20
-123.8750000000001
10
-45.549999999999997
20
-123.87500000000009
42
-0.41421356237312101
10
-46.049999999999997
20
-123.37500000000009
10
-46.050000000000004
20
-110.3750000000001
42
-0.41421356237307422
10
-45.549999999999997
20
-109.8750000000001
10
-32.549999999999997
20
-109.87500000000011
42
-0.41421356237310025
0
LWPOLYLINE
5
155
100
AcDbEntity
8
0
100
AcDbPolyline
90
8
70
1
43
0.0
10
-22.524999999999999
20
-81.800000000000082
10
-22.524999999999991
20
-94.800000000000097
42
-0.4142135623730846
10
-23.024999999999999
20
-95.300000000000082
10
-36.024999999999999
20
-95.300000000000082
42
-0.41421356237310025
10
-36.524999999999999
20
-94.800000000000097
10
-36.524999999999999
20
-81.800000000000097
42
-0.41421356237310025
10
-36.024999999999999
20
-81.300000000000097
10
-23.024999999999999
20
-81.300000000000097
42
-0.4142135623730846
0
LWPOLYLINE
5
156
100
AcDbEntity
8
0
100
AcDbPolyline
90
8
70
1
43
0.0
10
-60.625
20
-81.800000000000082
10
-60.625
20
-94.800000000000097
42
-0.41421356237310542
10
-61.125000000000007
20
-95.300000000000082
10
-74.125
20
-95.300000000000082
42
-0.41421356237310025
10
-74.625
20
-94.800000000000097
10
-74.625
20
-81.800000000000097
42
-0.41421356237310025
10
-74.125
20
-81.300000000000097
10
-61.125000000000007
20
-81.300000000000097
42
-0.41421356237310542
0
LWPOLYLINE
5
157
100
AcDbEntity
8
0
100
AcDbPolyline
90
8
70
1
43
0.0
10
-98.724999999999994
20
-81.800000000000082
42
0.41421356237307422
10
-99.224999999999994
20
-81.300000000000082
10
-112.22499999999999
20
-81.300000000000097
42
0.41421356237312623
10
-112.72500000000001
20
-81.800000000000082
10
-112.72500000000001
20
-94.800000000000097
42
0.41421356237307422
10
-112.22499999999999
20
-95.300000000000082
10
-99.224999999999994
20
-95.300000000000082
42
0.41421356237312623
10
-98.725000000000009
20
-94.800000000000097
0
LWPOLYLINE
5
158
100
AcDbEntity
8
0
100
AcDbPolyline
90
8
70
1
43
0.0
10
-136.82499999999999
20
-81.800000000000082
10
-136.82500000000002
20
-94.800000000000097
42
-0.41421356237309503
10
-137.32499999999999
20
-95.300000000000082
10
-150.32499999999999
20
-95.300000000000097
42
-0.41421356237307422
10
-150.82499999999999
20
-94.800000000000097
10
-150.82499999999999
20
-81.800000000000082
42
-0.41421356237312623
10
-150.32499999999999
20
-81.300000000000097
10
-137.32499999999999
20
-81.300000000000082
42
-0.4142135623730534
0
LWPOLYLINE
5
159
100
AcDbEntity
8
0
100
AcDbPolyline
90
8
70
1
43
0.0
10
-174.92500000000004
20
-81.800000000000082
10
-174.92500000000001
20
-94.800000000000097
42
-0.41421356237307422
10
-175.42500000000001
20
-95.300000000000082
10
-188.42500000000001
20
-95.300000000000082
42
-0.4142135623730846
10
-188.92500000000001
20
-94.800000000000097
10
-188.92500000000001
20
-81.800000000000082
42
-0.41421356237304302
10
-188.42500000000001
20
-81.300000000000097
10
-175.42500000000001
20
-81.300000000000111
42
-0.41421356237309503
0
LWPOLYLINE
5
160
100
AcDbEntity
8
0
100
AcDbPolyline
90
8
70
1
43
0.0
10
-213.02500000000003
20
-81.800000000000082
10
-213.02500000000003
20
-94.800000000000097
42
-0.41421356237307422
10
-213.52500000000003
20
-95.300000000000082
10
-226.52500000000003
20
-95.300000000000082
42
-0.4142135623730846
10
-227.02500000000003
20
-94.800000000000097
10
-227.02500000000003
20
-81.800000000000082
42
-0.41421356237304302
10
-226.52500000000003
20
-81.300000000000097
10
-213.52500000000003
20
-81.300000000000082
42
-0.41421356237309503
0
LWPOLYLINE
5
161
100
AcDbEntity
8
0
100
AcDbPolyline
90
8
70
1
43
0.0
10
-151.11250000000001
20
-43.700000000000081
10
-151.11250000000004
20
-56.700000000000088
42
-0.41421356237312101
10
-151.61250000000001
20
-57.200000000000088
10
-164.61250000000004
20
-57.200000000000095
42
-0.41421356237313667
10
-165.11250000000004
20
-56.700000000000088
10
-165.11250000000004
20
-43.700000000000081
42
-0.41421356237313667
10
-164.61250000000004
20
-43.200000000000074
10
-151.61250000000001
20
-43.200000000000067
42
-0.41421356237310025
0
LWPOLYLINE
5
162
100
AcDbEntity
8
0
100
AcDbPolyline
90
8
70
1
43
0.0
10
-75.412499999999994
20
-57.200000000000088
10
-88.412499999999994
20
-57.200000000000102
42
-0.41421356237307944
10
-88.912500000000009
20
-56.700000000000088
10
-88.912499999999994
20
-43.700000000000081
42
-0.41421356237307944
10
-88.412500000000009
20
-43.200000000000074
10
-75.412499999999994
20
-43.200000000000081
42
-0.41421356237310542
10
-74.912499999999994
20
-43.700000000000081
10
-74.912499999999994
20
-56.700000000000088
42
-0.41421356237310542
0
LWPOLYLINE
5
163
100
AcDbEntity
8
0
100
AcDbPolyline
90
8
70
1
43
0.0
10
-241.59999999999999
20
-110.3750000000001
10
-241.60000000000002
20
-123.37500000000009
42
-0.41421356237310542
10
-242.10000000000002
20
-123.8750000000001
10
-255.10000000000002
20
-123.8750000000001
42
-0.41421356237313667
10
-255.60000000000002
20
-123.37500000000009
10
-255.60000000000002
20
-110.3750000000001
42
-0.41421356237309503
10
-255.10000000000002
20
-109.8750000000001
10
-242.10000000000002
20
-109.87500000000011
42
-0.4142135623730846
0
LWPOLYLINE
5
164
100
AcDbEntity
8
0
100
AcDbPolyline
90
8
70
1
43
0.0
10
-289.22500000000002
20
-81.800000000000082
10
-289.22500000000002
20
-94.800000000000097
42
-0.41421356237304302
10
-289.72500000000002
20
-95.300000000000082
10
-302.72500000000002
20
-95.300000000000097
42
-0.41421356237309503
10
-303.22500000000002
20
-94.800000000000097
10
-303.22500000000002
20
-81.800000000000082
42
-0.41421356237307422
10
-302.72500000000002
20
-81.300000000000097
10
-289.72500000000002
20
-81.300000000000097
42
-0.4142135623730846
0
LWPOLYLINE
5
165
100
AcDbEntity
8
0
100
AcDbPolyline
90
8
70
1
43
0.0
10
-227.31250000000003
20
-5.6000000000000805
10
-227.31249999999994
20
-18.600000000000083
42
-0.41421356237312362
10
-227.8125
20
-19.10000000000009
10
-240.8125
20
-19.100000000000087
42
-0.41421356237313406
10
-241.3125
20
-18.600000000000083
10
-241.3125
20
-5.6000000000000805
42
-0.41421356237313273
10
-240.8125
20
-5.1000000000000734
10
-227.8125
20
-5.1000000000000973
42
-0.41421356237310153
0
LWPOLYLINE
5
166
100
AcDbEntity
8
0
100
AcDbPolyline
90
8
70
1
43
0.0
10
-243.98124999999999
20
-24.650000000000077
42
0.41421356237313145
10
-244.48125000000002
20
-24.15000000000008
10
-257.48125000000005
20
-24.15000000000007
42
0.41421356237310025
10
-257.98124999999999
20
-24.650000000000077
10
-257.98125000000005
20
-37.650000000000084
42
0.41421356237310281
10
-257.48125000000005
20
-38.150000000000077
10
-244.48125000000002
20
-38.150000000000091
42
0.41421356237313406
10
-243.98124999999999
20
-37.650000000000084
0
LWPOLYLINE
5
167
100
AcDbEntity
8
0
100
AcDbPolyline
90
8
70
1
43
0.0
10
-161.13749999999999
20
-38.150000000000077
10
-174.13749999999999
20
-38.150000000000105
42
-0.41421356237310281
10
-174.63750000000002
20
-37.650000000000084
10
-174.63750000000002
20
-24.650000000000077
42
-0.41421356237310025
10
-174.13749999999999
20
-24.15000000000007
10
-161.13749999999999
20
-24.15000000000008
42
-0.41421356237313145
10
-160.63749999999999
20
-24.650000000000077
10
-160.63749999999999
20
-37.650000000000084
42
-0.41421356237313406
0
LWPOLYLINE
5
168
100
AcDbEntity
8
0
100
AcDbPolyline
90
8
70
1
43
0.0
10
-141.58750000000001
20
-24.650000000000077
10
-141.58750000000001
20
-37.650000000000084
42
-0.41421356237309503
10
-142.08750000000003
20
-38.150000000000091
10
-155.08750000000001
20
-38.150000000000091
42
-0.41421356237307422
10
-155.58750000000001
20
-37.650000000000084
10
-155.58750000000001
20
-24.650000000000077
42
-0.41421356237307161
10
-155.08750000000001
20
-24.15000000000007
10
-142.08750000000003
20
-24.150000000000077
42
-0.41421356237309243
0
LWPOLYLINE
5
169
100
AcDbEntity
8
0
100
AcDbPolyline
90
8
70
1
43
0.0
10
-84.4375
20
-24.650000000000077
10
-84.4375
20
-37.650000000000084
42
-0.41421356237307422
10
-84.9375
20
-38.150000000000091
10
-97.937500000000014
20
-38.150000000000091
42
-0.41421356237307422
10
-98.437500000000014
20
-37.650000000000084
10
-98.437500000000014
20
-24.650000000000077
42
-0.41421356237307161
10
-97.937500000000014
20
-24.15000000000007
10
-84.9375
20
-24.150000000000077
42
-0.41421356237307161
0
LWPOLYLINE
5
170
100
AcDbEntity
8
0
100
AcDbPolyline
90
8
70
1
43
0.0
10
-46.837499999999999
20
-38.150000000000077
10
-59.837500000000006
20
-38.150000000000084
42
-0.41421356237309764
10
-60.337500000000006
20
-37.650000000000084
10
-60.33750000000002
20
-24.650000000000077
42
-0.41421356237310025
10
-59.837500000000006
20
-24.15000000000007
10
-46.837499999999999
20
-24.150000000000077
42
-0.41421356237309764
10
-46.337499999999999
20
-24.650000000000077
10
-46.337499999999991
20
-37.650000000000084
42
-0.41421356237310281
0
LWPOLYLINE
5
171
100
AcDbEntity
8
0
100
AcDbPolyline
90
8
70
1
43
0.0
10
-217.78750000000002
20
-24.650000000000077
10
-217.78749999999999
20
-37.650000000000084
42
-0.41421356237310281
10
-218.28749999999999
20
-38.150000000000091
10
-231.28749999999999
20
-38.150000000000084
42
-0.41421356237313406
10
-231.78750000000002
20
-37.650000000000084
10
-231.78750000000002
20
-24.650000000000077
42
-0.41421356237313145
10
-231.28749999999999
20
-24.15000000000007
10
-218.28749999999999
20
-24.150000000000098
42
-0.41421356237310025
0
LWPOLYLINE
5
172
100
AcDbEntity
8
0
100
AcDbPolyline
90
8
70
1
43
0.0
10
-198.73750000000001
20
-5.6000000000000805
10
-198.73750000000001
20
-18.600000000000083
42
-0.41421356237313406
10
-199.23750000000001
20
-19.10000000000009
10
-212.23750000000001
20
-19.100000000000069
42
-0.41421356237312362
10
-212.73750000000004
20
-18.600000000000083
10
-212.73750000000004
20
-5.6000000000000805
42
-0.41421356237310153
10
-212.23750000000001
20
-5.1000000000000734
10
-199.23750000000001
20
-5.1000000000000796
42
-0.41421356237313273
0
LWPOLYLINE
5
173
100
AcDbEntity
8
0
100
AcDbPolyline
90
8
70
1
43
0.0
10
-289.22500000000002
20
-5.6000000000000805
10
-289.22500000000002
20
-18.600000000000083
42
-0.41421356237312362
10
-289.72500000000002
20
-19.10000000000009
10
-302.72500000000002
20
-19.100000000000087
42
-0.41421356237313406
10
-303.22500000000002
20
-18.600000000000083
10
-303.22500000000002
20
-5.6000000000000805
42
-0.41421356237313273
10
-302.72500000000002
20
-5.1000000000000734
10
-289.72500000000002
20
-5.1000000000000618
42
-0.41421356237310153
0
LWPOLYLINE
5
174
100
AcDbEntity
8
0
100
AcDbPolyline
90
8
70
1
43
0.0
10
-6.3562500000000011
20
-57.200000000000088
42
0.41421356237309631
10
-5.8562500000000011
20
-56.700000000000088
10
-5.8562500000000011
20
-43.700000000000081
42
0.41421356237309631
10
-6.3562500000000011
20
-43.200000000000081
10
-24.118750000000002
20
-43.200000000000074
42
0.41421356237310025
10
-24.618749999999999
20
-43.700000000000081
10
-24.618749999999999
20
-56.700000000000088
42
0.41421356237309764
10
-24.118750000000002
20
-57.200000000000088
0
LWPOLYLINE
5
175
100
AcDbEntity
8
0
100
AcDbPolyline
90
8
70
1
43
0.0
10
-93.962500000000006
20
-43.700000000000081
10
-93.96250000000002
20
-56.700000000000088
42
-0.41421356237310542
10
-94.462500000000006
20
-57.200000000000088
10
-107.46250000000001
20
-57.200000000000102
42
-0.41421356237307944
10
-107.96250000000002
20
-56.700000000000088
10
-107.96250000000001
20
-43.700000000000081
42
-0.41421356237307944
10
-107.46250000000002
20
-43.200000000000074
10
-94.462500000000034
20
-43.200000000000067
42
-0.41421356237307944
0
LWPOLYLINE
5
176
100
AcDbEntity
8
0
100
AcDbPolyline
90
8
70
1
43
0.0
10
-170.16249999999999
20
-43.700000000000081
10
-170.16249999999997
20
-56.700000000000088
42
-0.41421356237307422
10
-170.66249999999999
20
-57.200000000000088
10
-183.66250000000002
20
-57.200000000000074
42
-0.41421356237312623
10
-184.16250000000002
20
-56.700000000000088
10
-184.16250000000005
20
-43.700000000000081
42
-0.41421356237312623
10
-183.66250000000002
20
-43.200000000000074
10
-170.66249999999999
20
-43.200000000000074
42
-0.41421356237313667
0
LWPOLYLINE
5
177
100
AcDbEntity
8
0
100
AcDbPolyline
90
8
70
1
43
0.0
10
-241.59999999999999
20
-62.750000000000085
10
-241.60000000000002
20
-75.750000000000085
42
-0.4142135623730222
10
-242.10000000000002
20
-76.250000000000085
10
-255.10000000000002
20
-76.250000000000085
42
-0.41421356237313667
10
-255.60000000000002
20
-75.750000000000085
10
-255.60000000000005
20
-62.750000000000085
42
-0.41421356237307422
10
-255.10000000000002
20
-62.250000000000085
10
-242.10000000000002
20
-62.250000000000099
42
-0.41421356237312101
0
LWPOLYLINE
5
178
100
AcDbEntity
8
0
100
AcDbPolyline
90
8
70
1
43
0.0
10
-203.5
20
-62.750000000000085
10
-203.49999999999997
20
-75.750000000000085
42
-0.41421356237307422
10
-204.00000000000003
20
-76.250000000000085
10
-217.00000000000003
20
-76.250000000000071
42
-0.41421356237312623
10
-217.50000000000003
20
-75.750000000000085
10
-217.5
20
-62.750000000000085
42
-0.4142135623730222
10
-217.00000000000003
20
-62.250000000000085
10
-204.00000000000003
20
-62.250000000000085
42
-0.41421356237313145
0
LWPOLYLINE
5
179
100
AcDbEntity
8
0
100
AcDbPolyline
90
8
70
1
43
0.0
10
-165.40000000000003
20
-62.750000000000085
10
-165.39999999999995
20
-75.750000000000085
42
-0.41421356237307422
10
-165.90000000000001
20
-76.250000000000085
10
-178.90000000000001
20
-76.250000000000071
42
-0.41421356237312623
10
-179.40000000000001
20
-75.750000000000085
10
-179.39999999999998
20
-62.750000000000085
42
-0.4142135623730222
10
-178.90000000000001
20
-62.250000000000085
10
-165.90000000000001
20
-62.250000000000121
42
-0.41421356237313145
0
LWPOLYLINE
5
180
100
AcDbEntity
8
0
100
AcDbPolyline
90
8
70
1
43
0.0
10
-89.200000000000003
20
-62.750000000000085
10
-89.200000000000017
20
-75.750000000000085
42
-0.41421356237310542
10
-89.700000000000003
20
-76.250000000000085
10
-102.69999999999999
20
-76.250000000000099
42
-0.41421356237307944
10
-103.20000000000002
20
-75.750000000000085
10
-103.2
20
-62.750000000000085
42
-0.41421356237310025
10
-102.70000000000002
20
-62.250000000000085
10
-89.700000000000003
20
-62.250000000000078
42
-0.41421356237307422
0
LWPOLYLINE
5
181
100
AcDbEntity
8
0
100
AcDbPolyline
90
8
70
1
43
0.0
10
-51.600000000000001
20
-76.250000000000085
10
-64.599999999999994
20
-76.250000000000085
42
-0.41421356237309503
10
-65.099999999999994
20
-75.750000000000085
10
-65.099999999999994
20
-62.750000000000085
42
-0.41421356237309503
10
-64.599999999999994
20
-62.250000000000085
10
-51.600000000000001
20
-62.250000000000085
42
-0.41421356237309503
10
-51.100000000000001
20
-62.750000000000085
10
-51.100000000000001
20
-75.750000000000085
42
-0.41421356237310542
0
LWPOLYLINE
5
182
100
AcDbEntity
8
0
100
AcDbPolyline
90
8
70
1
43
0.0
10
-8.2375000000000007
20
-62.750000000000085
10
-8.2375000000000025
20
-75.750000000000085
42
-0.4142135623730957
10
-8.7375000000000007
20
-76.250000000000085
10
-21.737500000000001
20
-76.250000000000071
42
-0.41421356237309764
10
-22.237499999999997
20
-75.750000000000085
10
-22.237499999999997
20
-62.750000000000085
42
-0.41421356237309503
10
-21.737500000000001
20
-62.250000000000085
10
-8.7375000000000025
20
-62.250000000000085
42
-0.41421356237309437
0
LWPOLYLINE
5
183
100
AcDbEntity
8
0
100
AcDbPolyline
90
8
70
1
43
0.0
10
-51.100000000000001
20
-110.3750000000001
10
-51.100000000000009
20
-123.37500000000009
42
-0.41421356237310542
10
-51.600000000000001
20
-123.8750000000001
10
-64.599999999999994
20
-123.8750000000001
42
-0.41421356237311585
10
-65.099999999999994
20
-123.37500000000009
10
-65.099999999999994
20
-110.37500000000011
42
-0.414213562373069
10
-64.599999999999994
20
-109.8750000000001
10
-51.600000000000001
20
-109.87500000000011
42
-0.41421356237310542
0
LWPOLYLINE
5
184
100
AcDbEntity
8
0
100
AcDbPolyline
90
8
70
1
43
0.0
10
-136.82499999999999
20
-110.3750000000001
42
0.4142135623730534
10
-137.32499999999999
20
-109.8750000000001
10
-150.32499999999999
20
-109.8750000000001
42
0.41421356237307422
10
-150.82499999999999
20
-110.3750000000001
10
-150.82499999999999
20
-123.37500000000009
42
0.41421356237309503
10
-150.32499999999999
20
-123.8750000000001
10
-137.32499999999999
20
-123.8750000000001
42
0.41421356237307422
10
-136.82499999999999
20
-123.37500000000009
0
LWPOLYLINE
5
185
100
AcDbEntity
8
0
100
AcDbPolyline
90
8
70
1
43
0.0
10
-222.55000000000001
20
-110.3750000000001
10
-222.55000000000001
20
-123.37500000000009
42
-0.41421356237313667
10
-223.05000000000004
20
-123.8750000000001
10
-236.05000000000004
20
-123.87500000000011
42
-0.41421356237310542
10
-236.55000000000004
20
-123.37500000000009
10
-236.55000000000007
20
-110.3750000000001
42
-0.4142135623730846
10
-236.05000000000004
20
-109.8750000000001
10
-223.05000000000004
20
-109.8750000000001
42
-0.41421356237309503
0
LWPOLYLINE
5
186
100
AcDbEntity
8
0
100
AcDbPolyline
90
4
70
1
43
0.0
10
-196.53756710610304
20
-98.800000000000097
10
-266.67968747104499
20
-98.800000000000097
10
-266.67968747104499
20
-97.60000000000008
10
-196.53756710610304
20
-97.60000000000008
0
ENDSEC
0
SECTION
2
OBJECTS
0
DICTIONARY
5
C
100
AcDbDictionary
3
ACAD_GROUP
350
D
3
ACAD_MLINESTYLE
350
17
0
DICTIONARY
5
D
100
AcDbDictionary
0
DICTIONARY
5
1A
330
C
100
AcDbDictionary
0
DICTIONARY
5
17
100
AcDbDictionary
0
ENDSEC
0
EOF
