0
SECTION
2
HEADER
9
$INSUNITS
70
4
9
$ACADVER
1
AC1014
9
$HANDSEED
5
FFFF
0
ENDSEC
0
SECTION
2
TABLES
0
TABLE
2
VPORT
5
8
100
AcDbSymbolTable
0
ENDTAB
0
TABLE
2
LTYPE
5
5
100
AcDbSymbolTable
0
LTYPE
5
14
100
AcDbSymbolTableRecord
100
AcDbLinetypeTableRecord
2
BYBLOCK
70
0
0
LTYPE
5
15
100
AcDbSymbolTableRecord
100
AcDbLinetypeTableRecord
2
BYLAYER
70
0
0
ENDTAB
0
TABLE
2
LAYER
5
2
100
AcDbSymbolTable
70
2
0
LAYER
5
50
100
AcDbSymbolTableRecord
100
AcDbLayerTableRecord
2
0
70
0
6
CONTINUOUS
0
ENDTAB
0
TABLE
2
STYLE
5
3
100
AcDbSymbolTable
70
1
0
STYLE
5
11
100
AcDbSymbolTableRecord
100
AcDbTextStyleTableRecord
2
STANDARD
70
0
0
ENDTAB
0
TABLE
2
VIEW
5
6
100
AcDbSymbolTable
70
0
0
ENDTAB
0
TABLE
2
UCS
5
7
100
AcDbSymbolTable
70
0
0
ENDTAB
0
TABLE
2
APPID
5
9
100
AcDbSymbolTable
70
2
0
APPID
5
12
100
AcDbSymbolTableRecord
100
AcDbRegAppTableRecord
2
ACAD
70
0
0
ENDTAB
0
TABLE
2
DIMSTYLE
5
A
100
AcDbSymbolTable
70
1
0
ENDTAB
0
TABLE
2
BLOCK_RECORD
5
1
100
AcDbSymbolTable
70
1
0
BLOCK_RECORD
5
1F
100
AcDbSymbolTableRecord
100
AcDbBlockTableRecord
2
*MODEL_SPACE
0
BLOCK_RECORD
5
1B
100
AcDbSymbolTableRecord
100
AcDbBlockTableRecord
2
*PAPER_SPACE
0
ENDTAB
0
ENDSEC
0
SECTION
2
BLOCKS
0
BLOCK
5
20
100
AcDbEntity
100
AcDbBlockBegin
2
*MODEL_SPACE
0
ENDBLK
5
21
100
AcDbEntity
100
AcDbBlockEnd
0
BLOCK
5
1C
100
AcDbEntity
100
AcDbBlockBegin
2
*PAPER_SPACE
0
ENDBLK
5
1D
100
AcDbEntity
100
AcDbBlockEnd
0
ENDSEC
0
SECTION
2
ENTITIES
0
LWPOLYLINE
5
100
100
AcDbEntity
8
0
100
AcDbPolyline
90
72
70
1
43
0.0
10
-0.95084600000006514
20
-125.39951181318401
10
-0.95084600000006514
20
-3.5742048131840676
42
0.41421356237309748
10
-1.9508460000000505
20
-2.574204813184048
10
-6.3224004080865708
20
-2.574204813184048
42
-0.41421356237309503
10
-7.0224004080865701
20
-1.8742048131840485
10
-7.022400408086571
20
1.7968629986815519
42
0.41421356237309515
10
-7.7224004080865702
20
2.4968629986815518
10
-66.321913811865414
20
2.4968629986815518
42
0.41421356237308676
10
-67.021913811865403
20
1.7968629986815519
10
-67.021913811865403
20
-1.8742048131840485
42
-0.41421356237309503
10
-67.72191381186542
20
-2.5742048131840489
10
-84.464049435596408
20
-2.5742048131840511
42
-0.41421356237305046
10
-85.164049435596297
20
-1.8742048131840485
10
-85.164049435596297
20
1.7968629986813121
42
0.41421356237309026
10
-85.864049435596414
20
2.4968629986813036
10
-140.46356283937499
20
2.4968629986813218
42
0.41421356237310342
10
-141.163562839375
20
1.7968629986813016
10
-141.16356283937498
20
-1.8742048131840485
42
-0.41421356237307266
10
-141.86356283937499
20
-2.5742048131840427
10
-164.88255796440299
20
-2.5742048131840356
42
-0.41421356237308854
10
-165.58255796440301
20
-1.8742048131840485
10
-165.58255796440304
20
1.7968629986813121
42
0.41421356237309076
10
-166.282557964403
20
2.4968629986813045
10
-220.837557964404
20
2.4968629986813116
42
0.41421356237309503
10
-221.53755796440402
20
1.7968629986813118
10
-221.53755796440402
20
-1.8742048131840487
42
-0.41421356237309043
10
-222.237557964404
20
-2.5742048131840485
10
-238.97969358813501
20
-2.57420481318404
42
-0.41421356237309043
10
-239.67969358813502
20
-1.8742048131840485
10
-239.67969358813502
20
1.7968629986815519
42
0.41421356237309503
10
-240.37969358813501
20
2.4968629986815549
10
-298.97920699191297
20
2.4968629986815816
42
0.41421356237309054
10
-299.67920699191302
20
1.7968629986815818
10
-299.67920699191302
20
-1.8742048131840485
42
-0.41421356237309503
10
-300.37920699191307
20
-2.5742048131840489
10
-304.75076139999999
20
-2.5742048131840485
42
0.41421356237310403
10
-305.75076139999999
20
-3.5742048131840387
10
-305.75076139999999
20
-125.39951181318401
42
0.41421356237310542
10
-304.75076139999999
20
-126.39951181318398
10
-300.450761400001
20
-126.39951181318401
42
-0.41421356237309503
10
-299.75076140000101
20
-127.09951181318401
10
-299.75076140000101
20
-130.77057962504904
42
0.41421356237307272
10
-299.05076140000108
20
-131.47057962504906
10
-240.37969358813501
20
-131.47057962504999
42
0.41421356237309503
10
-239.67969358813505
20
-130.77057962505
10
-239.67969358813497
20
-127.09951181318401
42
-0.41421356237310253
10
-238.97969358813501
20
-126.39951181318402
10
-222.237557964404
20
-126.39951181318398
42
-0.41421356237307272
10
-221.53755796440402
20
-127.09951181318401
10
-221.53755796440402
20
-130.77057962504904
42
0.41421356237309503
10
-220.837557964404
20
-131.47057962504903
10
-166.282557964403
20
-131.470579625049
42
0.41421356237309503
10
-165.58255796440301
20
-130.77057962504904
10
-165.58255796440301
20
-127.09951181318401
42
-0.41421356237307272
10
-164.88255796440299
20
-126.39951181318401
10
-141.86356283937499
20
-126.39951181318396
42
-0.4142135623730876
10
-141.16356283937498
20
-127.09951181318401
10
-141.163562839375
20
-130.77057962504904
42
0.41421356237309503
10
-140.46356283937499
20
-131.47057962504903
10
-85.864049435596414
20
-131.470579625049
42
0.41421356237309503
10
-85.164049435596411
20
-130.77057962504904
10
-85.164049435596411
20
-127.09951181318401
42
-0.41421356237308021
10
-84.464049435596408
20
-126.39951181318401
10
-67.72191381186542
20
-126.39951181318398
42
-0.41421356237310619
10
-67.021913811865403
20
-127.09951181318401
10
-67.021913811865403
20
-130.77057962505
42
0.41421356237309503
10
-66.321913811865414
20
-131.47057962505002
10
-7.722400408086596
20
-131.470579625049
42
0.41421356237308066
10
-7.0224004080865923
20
-130.77057962504904
10
-7.0224004080865932
20
-127.09951181318401
42
-0.41421356237309503
10
-6.3224004080865903
20
-126.39951181318401
10
-1.9508460000000705
20
-126.39951181318501
42
0.41421356237309687
0
LWPOLYLINE
5
101
100
AcDbEntity
8
0
100
AcDbPolyline
90
8
70
1
43
0.0
10
-222.55000000000001
20
-110.37500000000001
10
-222.55000000000001
20
-123.375
42
-0.41421356237309503
10
-223.05000000000004
20
-123.87500000000001
10
-236.05000000000004
20
-123.875
42
-0.4142135623730846
10
-236.55000000000004
20
-123.375
10
-236.55000000000001
20
-110.37500000000001
42
-0.41421356237310542
10
-236.05000000000004
20
-109.875
10
-223.05000000000004
20
-109.875
42
-0.41421356237313667
0
LWPOLYLINE
5
102
100
AcDbEntity
8
0
100
AcDbPolyline
90
8
70
1
43
0.0
10
-136.82499999999999
20
-110.37500000000001
42
0.41421356237307422
10
-137.32499999999999
20
-109.875
10
-150.32499999999999
20
-109.875
42
0.41421356237309503
10
-150.82499999999999
20
-110.37500000000001
10
-150.82499999999999
20
-123.375
42
0.41421356237307422
10
-150.32499999999999
20
-123.87500000000001
10
-137.32499999999999
20
-123.87500000000001
42
0.4142135623730534
10
-136.82499999999999
20
-123.375
0
LWPOLYLINE
5
103
100
AcDbEntity
8
0
100
AcDbPolyline
90
8
70
1
43
0.0
10
-51.100000000000001
20
-110.37500000000001
10
-51.099999999999994
20
-123.375
42
-0.41421356237307422
10
-51.600000000000001
20
-123.87500000000001
10
-64.599999999999994
20
-123.875
42
-0.41421356237310025
10
-65.099999999999994
20
-123.375
10
-65.099999999999994
20
-110.37500000000001
42
-0.41421356237308982
10
-64.599999999999994
20
-109.875
10
-51.600000000000001
20
-109.87500000000003
42
-0.41421356237312101
0
LWPOLYLINE
5
104
100
AcDbEntity
8
0
100
AcDbPolyline
90
8
70
1
43
0.0
10
-8.2375000000000007
20
-62.75
10
-8.237500000000006
20
-75.75
42
-0.4142135623730937
10
-8.7375000000000007
20
-76.25
10
-21.737500000000001
20
-76.25
42
-0.41421356237309503
10
-22.237499999999997
20
-75.75
10
-22.237500000000004
20
-62.75
42
-0.41421356237309764
10
-21.737500000000001
20
-62.250000000000007
10
-8.7375000000000025
20
-62.250000000000007
42
-0.41421356237309698
0
LWPOLYLINE
5
105
100
AcDbEntity
8
0
100
AcDbPolyline
90
8
70
1
43
0.0
10
-51.600000000000001
20
-76.25
10
-64.599999999999994
20
-76.25
42
-0.41421356237309503
10
-65.099999999999994
20
-75.75
10
-65.099999999999994
20
-62.75
42
-0.41421356237309503
10
-64.599999999999994
20
-62.250000000000007
10
-51.600000000000001
20
-62.250000000000007
42
-0.41421356237310542
10
-51.100000000000001
20
-62.75
10
-51.100000000000001
20
-75.75
42
-0.41421356237309503
0
LWPOLYLINE
5
106
100
AcDbEntity
8
0
100
AcDbPolyline
90
8
70
1
43
0.0
10
-89.200000000000003
20
-62.75
10
-89.200000000000017
20
-75.75
42
-0.41421356237310025
10
-89.700000000000003
20
-76.25
10
-102.70000000000002
20
-76.250000000000014
42
-0.41421356237307422
10
-103.20000000000002
20
-75.75
10
-103.2
20
-62.75
42
-0.41421356237310542
10
-102.70000000000002
20
-62.250000000000007
10
-89.700000000000017
20
-62.249999999999986
42
-0.41421356237307944
0
LWPOLYLINE
5
107
100
AcDbEntity
8
0
100
AcDbPolyline
90
8
70
1
43
0.0
10
-165.40000000000003
20
-62.75
10
-165.39999999999995
20
-75.75
42
-0.41421356237307422
10
-165.90000000000001
20
-76.25
10
-178.90000000000001
20
-76.249999999999986
42
-0.41421356237312101
10
-179.40000000000001
20
-75.75
10
-179.39999999999998
20
-62.75
42
-0.4142135623730222
10
-178.90000000000001
20
-62.250000000000007
10
-165.90000000000001
20
-62.250000000000028
42
-0.41421356237313667
0
LWPOLYLINE
5
108
100
AcDbEntity
8
0
100
AcDbPolyline
90
8
70
1
43
0.0
10
-203.5
20
-62.75
10
-203.49999999999997
20
-75.75
42
-0.41421356237307422
10
-204.00000000000003
20
-76.25
10
-217.00000000000003
20
-76.249999999999986
42
-0.41421356237312101
10
-217.50000000000003
20
-75.75
10
-217.5
20
-62.75
42
-0.4142135623730222
10
-217.00000000000003
20
-62.250000000000007
10
-204.00000000000003
20
-62.25
42
-0.41421356237313667
0
LWPOLYLINE
5
109
100
AcDbEntity
8
0
100
AcDbPolyline
90
8
70
1
43
0.0
10
-241.59999999999999
20
-62.75
10
-241.60000000000002
20
-75.75
42
-0.4142135623730222
10
-242.10000000000002
20
-76.25
10
-255.10000000000002
20
-76.25
42
-0.41421356237313145
10
-255.60000000000002
20
-75.75
10
-255.60000000000005
20
-62.75
42
-0.41421356237307422
10
-255.10000000000002
20
-62.250000000000007
10
-242.10000000000002
20
-62.250000000000014
42
-0.41421356237312623
0
LWPOLYLINE
5
110
100
AcDbEntity
8
0
100
AcDbPolyline
90
8
70
1
43
0.0
10
-170.16249999999999
20
-43.700000000000003
10
-170.16249999999997
20
-56.70000000000001
42
-0.41421356237307422
10
-170.66249999999999
20
-57.200000000000003
10
-183.66250000000002
20
-57.199999999999989
42
-0.41421356237312101
10
-184.16250000000002
20
-56.70000000000001
10
-184.16250000000005
20
-43.700000000000003
42
-0.41421356237312101
10
-183.66250000000002
20
-43.199999999999996
10
-170.66249999999999
20
-43.200000000000003
42
-0.41421356237313145
0
LWPOLYLINE
5
111
100
AcDbEntity
8
0
100
AcDbPolyline
90
8
70
1
43
0.0
10
-93.962500000000006
20
-43.700000000000003
10
-93.96250000000002
20
-56.70000000000001
42
-0.41421356237310025
10
-94.462500000000006
20
-57.200000000000003
10
-107.46250000000002
20
-57.200000000000017
42
-0.41421356237307422
10
-107.96250000000002
20
-56.70000000000001
10
-107.96250000000002
20
-43.700000000000003
42
-0.41421356237307422
10
-107.46250000000002
20
-43.199999999999996
10
-94.462500000000006
20
-43.199999999999996
42
-0.41421356237307422
0
LWPOLYLINE
5
112
100
AcDbEntity
8
0
100
AcDbPolyline
90
8
70
1
43
0.0
10
-6.3562500000000011
20
-57.200000000000003
42
0.41421356237309437
10
-5.8562500000000037
20
-56.70000000000001
10
-5.8562500000000011
20
-43.700000000000003
42
0.4142135623730937
10
-6.3562500000000011
20
-43.200000000000003
10
-24.118750000000002
20
-43.199999999999996
42
0.41421356237309503
10
-24.618749999999999
20
-43.700000000000003
10
-24.618749999999999
20
-56.70000000000001
42
0.41421356237309503
10
-24.118750000000002
20
-57.200000000000003
0
LWPOLYLINE
5
113
100
AcDbEntity
8
0
100
AcDbPolyline
90
8
70
1
43
0.0
10
-289.22500000000002
20
-5.599999999999997
10
-289.22500000000002
20
-18.599999999999998
42
-0.41421356237312362
10
-289.72500000000002
20
-19.100000000000009
10
-302.72500000000002
20
-19.100000000000001
42
-0.41421356237313273
10
-303.22500000000002
20
-18.600000000000001
10
-303.22500000000002
20
-5.5999999999999979
42
-0.41421356237313406
10
-302.72500000000002
20
-5.0999999999999899
10
-289.72500000000002
20
-5.0999999999999783
42
-0.4142135623731022
0
LWPOLYLINE
5
114
100
AcDbEntity
8
0
100
AcDbPolyline
90
8
70
1
43
0.0
10
-198.73750000000001
20
-5.599999999999997
10
-198.73750000000001
20
-18.599999999999998
42
-0.41421356237313406
10
-199.23750000000001
20
-19.100000000000009
10
-212.23750000000001
20
-19.099999999999984
42
-0.41421356237312235
10
-212.73750000000004
20
-18.600000000000001
10
-212.73750000000004
20
-5.5999999999999979
42
-0.41421356237310281
10
-212.23750000000001
20
-5.0999999999999899
10
-199.23750000000001
20
-5.0999999999999961
42
-0.41421356237313339
0
LWPOLYLINE
5
115
100
AcDbEntity
8
0
100
AcDbPolyline
90
8
70
1
43
0.0
10
-217.78750000000002
20
-24.649999999999999
10
-217.78749999999999
20
-37.649999999999999
42
-0.41421356237310281
10
-218.28749999999999
20
-38.150000000000006
10
-231.28749999999999
20
-38.150000000000006
42
-0.41421356237313406
10
-231.78750000000002
20
-37.649999999999999
10
-231.78750000000002
20
-24.649999999999999
42
-0.41421356237313145
10
-231.28749999999999
20
-24.149999999999991
10
-218.28749999999999
20
-24.15000000000002
42
-0.41421356237310025
0
LWPOLYLINE
5
116
100
AcDbEntity
8
0
100
AcDbPolyline
90
8
70
1
43
0.0
10
-46.837499999999999
20
-38.149999999999999
10
-59.837500000000006
20
-38.150000000000006
42
-0.41421356237309764
10
-60.337500000000006
20
-37.649999999999999
10
-60.33750000000002
20
-24.649999999999999
42
-0.41421356237310025
10
-59.837500000000006
20
-24.149999999999991
10
-46.837499999999999
20
-24.149999999999995
42
-0.41421356237309764
10
-46.337499999999999
20
-24.649999999999999
10
-46.337499999999991
20
-37.649999999999999
42
-0.41421356237310281
0
LWPOLYLINE
5
117
100
AcDbEntity
8
0
100
AcDbPolyline
90
8
70
1
43
0.0
10
-84.4375
20
-24.649999999999999
10
-84.4375
20
-37.649999999999999
42
-0.41421356237307422
10
-84.9375
20
-38.150000000000006
10
-97.937500000000014
20
-38.150000000000006
42
-0.41421356237307422
10
-98.437500000000014
20
-37.649999999999999
10
-98.437500000000014
20
-24.649999999999999
42
-0.41421356237307161
10
-97.937500000000014
20
-24.149999999999991
10
-84.9375
20
-24.149999999999995
42
-0.41421356237307161
0
LWPOLYLINE
5
118
100
AcDbEntity
8
0
100
AcDbPolyline
90
8
70
1
43
0.0
10
-141.58750000000001
20
-24.649999999999999
10
-141.58750000000001
20
-37.649999999999999
42
-0.41421356237309503
10
-142.08750000000003
20
-38.150000000000006
10
-155.08750000000001
20
-38.150000000000006
42
-0.41421356237307422
10
-155.58750000000001
20
-37.649999999999999
10
-155.58750000000001
20
-24.649999999999999
42
-0.41421356237307161
10
-155.08750000000001
20
-24.149999999999991
10
-142.08750000000003
20
-24.149999999999995
42
-0.41421356237309243
0
LWPOLYLINE
5
119
100
AcDbEntity
8
0
100
AcDbPolyline
90
8
70
1
43
0.0
10
-161.13749999999999
20
-38.149999999999999
10
-174.13749999999999
20
-38.15000000000002
42
-0.41421356237310281
10
-174.63750000000002
20
-37.649999999999999
10
-174.63750000000002
20
-24.649999999999999
42
-0.41421356237310025
10
-174.13749999999999
20
-24.149999999999991
10
-161.13749999999999
20
-24.149999999999999
42
-0.41421356237313145
10
-160.63749999999999
20
-24.649999999999999
10
-160.63749999999999
20
-37.649999999999999
42
-0.41421356237313406
0
LWPOLYLINE
5
120
100
AcDbEntity
8
0
100
AcDbPolyline
90
8
70
1
43
0.0
10
-243.98124999999999
20
-24.649999999999999
42
0.41421356237313145
10
-244.48125000000002
20
-24.149999999999999
10
-257.48125000000005
20
-24.149999999999991
42
0.41421356237310025
10
-257.98124999999999
20
-24.649999999999999
10
-257.98125000000005
20
-37.649999999999999
42
0.41421356237310281
10
-257.48125000000005
20
-38.149999999999999
10
-244.48125000000002
20
-38.150000000000006
42
0.41421356237313406
10
-243.98124999999999
20
-37.649999999999999
0
LWPOLYLINE
5
121
100
AcDbEntity
8
0
100
AcDbPolyline
90
8
70
1
43
0.0
10
-227.31250000000003
20
-5.599999999999997
10
-227.31249999999994
20
-18.599999999999998
42
-0.41421356237312362
10
-227.8125
20
-19.100000000000009
10
-240.8125
20
-19.100000000000001
42
-0.41421356237313273
10
-241.3125
20
-18.600000000000001
10
-241.3125
20
-5.5999999999999979
42
-0.41421356237313406
10
-240.8125
20
-5.0999999999999899
10
-227.8125
20
-5.1000000000000139
42
-0.4142135623731022
0
LWPOLYLINE
5
122
100
AcDbEntity
8
0
100
AcDbPolyline
90
8
70
1
43
0.0
10
-289.22500000000002
20
-81.799999999999997
10
-289.22500000000008
20
-94.800000000000011
42
-0.4142135623730534
10
-289.72500000000002
20
-95.299999999999997
10
-302.72500000000002
20
-95.300000000000011
42
-0.41421356237313667
10
-303.22500000000002
20
-94.800000000000011
10
-303.22500000000002
20
-81.799999999999997
42
-0.4142135623730846
10
-302.72500000000002
20
-81.300000000000011
10
-289.72500000000002
20
-81.299999999999969
42
-0.41421356237310542
0
LWPOLYLINE
5
123
100
AcDbEntity
8
0
100
AcDbPolyline
90
8
70
1
43
0.0
10
-241.59999999999999
20
-110.37500000000001
10
-241.59999999999997
20
-123.375
42
-0.4142135623730846
10
-242.10000000000002
20
-123.87500000000001
10
-255.10000000000002
20
-123.87500000000001
42
-0.41421356237309503
10
-255.60000000000002
20
-123.375
10
-255.60000000000002
20
-110.37500000000001
42
-0.41421356237313667
10
-255.10000000000002
20
-109.875
10
-242.10000000000002
20
-109.87499999999999
42
-0.41421356237310542
0
LWPOLYLINE
5
124
100
AcDbEntity
8
0
100
AcDbPolyline
90
8
70
1
43
0.0
10
-75.412499999999994
20
-57.200000000000003
10
-88.412500000000009
20
-57.200000000000017
42
-0.41421356237307422
10
-88.912500000000009
20
-56.70000000000001
10
-88.912500000000009
20
-43.700000000000003
42
-0.41421356237307422
10
-88.412500000000009
20
-43.199999999999996
10
-75.412499999999994
20
-43.200000000000003
42
-0.41421356237309503
10
-74.912499999999994
20
-43.700000000000003
10
-74.912499999999994
20
-56.70000000000001
42
-0.41421356237309503
0
LWPOLYLINE
5
125
100
AcDbEntity
8
0
100
AcDbPolyline
90
8
70
1
43
0.0
10
-151.11250000000001
20
-43.700000000000003
10
-151.11250000000001
20
-56.70000000000001
42
-0.41421356237311585
10
-151.61250000000001
20
-57.200000000000003
10
-164.61250000000004
20
-57.200000000000003
42
-0.41421356237313145
10
-165.11250000000004
20
-56.70000000000001
10
-165.11250000000004
20
-43.700000000000003
42
-0.41421356237313145
10
-164.61250000000004
20
-43.199999999999996
10
-151.61250000000001
20
-43.199999999999996
42
-0.41421356237309503
0
LWPOLYLINE
5
126
100
AcDbEntity
8
0
100
AcDbPolyline
90
8
70
1
43
0.0
10
-213.02500000000003
20
-81.799999999999997
10
-213.02500000000003
20
-94.800000000000011
42
-0.4142135623730846
10
-213.52500000000003
20
-95.299999999999997
10
-226.52500000000003
20
-95.300000000000026
42
-0.41421356237310542
10
-227.02500000000003
20
-94.800000000000011
10
-227.02500000000001
20
-81.799999999999997
42
-0.4142135623730534
10
-226.52500000000003
20
-81.300000000000011
10
-213.52500000000003
20
-81.299999999999983
42
-0.41421356237313667
0
LWPOLYLINE
5
127
100
AcDbEntity
8
0
100
AcDbPolyline
90
8
70
1
43
0.0
10
-174.92500000000004
20
-81.799999999999997
10
-174.92500000000001
20
-94.800000000000011
42
-0.4142135623730846
10
-175.42500000000001
20
-95.299999999999997
10
-188.42500000000001
20
-95.300000000000026
42
-0.41421356237310542
10
-188.92500000000001
20
-94.800000000000011
10
-188.92499999999998
20
-81.799999999999997
42
-0.4142135623730534
10
-188.42500000000001
20
-81.300000000000011
10
-175.42500000000001
20
-81.300000000000026
42
-0.41421356237313667
0
LWPOLYLINE
5
128
100
AcDbEntity
8
0
100
AcDbPolyline
90
8
70
1
43
0.0
10
-136.82499999999999
20
-81.799999999999997
10
-136.82500000000002
20
-94.800000000000011
42
-0.41421356237312623
10
-137.32499999999999
20
-95.299999999999997
10
-150.32499999999999
20
-95.300000000000011
42
-0.41421356237309503
10
-150.82499999999999
20
-94.800000000000011
10
-150.82499999999999
20
-81.799999999999997
42
-0.41421356237313667
10
-150.32499999999999
20
-81.300000000000011
10
-137.32499999999999
20
-81.299999999999983
42
-0.41421356237307422
0
LWPOLYLINE
5
129
100
AcDbEntity
8
0
100
AcDbPolyline
90
8
70
1
43
0.0
10
-98.724999999999994
20
-81.799999999999997
42
0.41421356237309503
10
-99.224999999999994
20
-81.299999999999983
10
-112.22499999999999
20
-81.300000000000011
42
0.41421356237313667
10
-112.72500000000001
20
-81.799999999999997
10
-112.72500000000001
20
-94.800000000000011
42
0.41421356237309503
10
-112.22499999999999
20
-95.299999999999997
10
-99.224999999999994
20
-95.299999999999997
42
0.41421356237313667
10
-98.725000000000009
20
-94.800000000000011
0
LWPOLYLINE
5
130
100
AcDbEntity
8
0
100
AcDbPolyline
90
8
70
1
43
0.0
10
-60.625
20
-81.799999999999997
10
-60.625000000000007
20
-94.800000000000011
42
-0.41421356237312101
10
-61.125000000000007
20
-95.299999999999997
10
-74.125
20
-95.300000000000011
42
-0.41421356237311585
10
-74.625
20
-94.800000000000011
10
-74.625
20
-81.799999999999997
42
-0.41421356237311585
10
-74.125
20
-81.300000000000011
10
-61.125000000000007
20
-81.299999999999983
42
-0.41421356237312101
0
LWPOLYLINE
5
131
100
AcDbEntity
8
0
100
AcDbPolyline
90
8
70
1
43
0.0
10
-22.524999999999999
20
-81.799999999999997
10
-22.525000000000016
20
-94.800000000000011
42
-0.41421356237311063
10
-23.024999999999999
20
-95.299999999999997
10
-36.024999999999999
20
-95.300000000000011
42
-0.41421356237311585
10
-36.524999999999999
20
-94.800000000000011
10
-36.524999999999991
20
-81.799999999999997
42
-0.41421356237311585
10
-36.024999999999999
20
-81.300000000000011
10
-23.024999999999999
20
-81.299999999999983
42
-0.41421356237311063
0
LWPOLYLINE
5
132
100
AcDbEntity
8
0
100
AcDbPolyline
90
8
70
1
43
0.0
10
-32.049999999999997
20
-110.37500000000001
10
-32.04999999999999
20
-123.375
42
-0.41421356237307422
10
-32.549999999999997
20
-123.87500000000001
10
-45.549999999999997
20
-123.875
42
-0.41421356237310542
10
-46.049999999999997
20
-123.375
10
-46.049999999999983
20
-110.37500000000001
42
-0.41421356237310542
10
-45.549999999999997
20
-109.875
10
-32.549999999999997
20
-109.875
42
-0.41421356237311585
0
LWPOLYLINE
5
133
100
AcDbEntity
8
0
100
AcDbPolyline
90
8
70
1
43
0.0
10
-117.77500000000002
20
-110.37500000000001
10
-117.77500000000001
20
-123.375
42
-0.41421356237307422
10
-118.27500000000001
20
-123.87500000000001
10
-131.27500000000001
20
-123.87500000000001
42
-0.41421356237307422
10
-131.77500000000003
20
-123.375
10
-131.77500000000003
20
-110.37500000000001
42
-0.41421356237309503
10
-131.27500000000001
20
-109.875
10
-118.27500000000001
20
-109.87500000000003
42
-0.41421356237309503
0
LWPOLYLINE
5
134
100
AcDbEntity
8
0
100
AcDbPolyline
90
8
70
1
43
0.0
10
-203.5
20
-110.37500000000001
10
-203.5
20
-123.375
42
-0.41421356237309503
10
-204.00000000000003
20
-123.87500000000001
10
-217.00000000000003
20
-123.875
42
-0.4142135623730846
10
-217.50000000000003
20
-123.375
10
-217.5
20
-110.37500000000001
42
-0.41421356237310542
10
-217.00000000000003
20
-109.875
10
-204.00000000000003
20
-109.875
42
-0.41421356237313667
0
LWPOLYLINE
5
135
100
AcDbEntity
8
0
100
AcDbPolyline
90
8
70
1
43
0.0
10
-156.375
20
-123.87500000000001
10
-169.375
20
-123.875
42
-0.4142135623730846
10
-169.875
20
-123.375
10
-169.87499999999997
20
-110.37500000000001
42
-0.41421356237310542
10
-169.375
20
-109.875
10
-156.375
20
-109.875
42
-0.41421356237307422
10
-155.875
20
-110.37500000000001
10
-155.875
20
-123.375
42
-0.4142135623730534
0
LWPOLYLINE
5
136
100
AcDbEntity
8
0
100
AcDbPolyline
90
8
70
1
43
0.0
10
-70.150000000000006
20
-110.37500000000001
10
-70.150000000000006
20
-123.375
42
-0.41421356237307422
10
-70.650000000000006
20
-123.87500000000001
10
-83.650000000000006
20
-123.87500000000001
42
-0.4142135623730534
10
-84.150000000000006
20
-123.375
10
-84.150000000000006
20
-110.37500000000001
42
-0.41421356237307422
10
-83.650000000000006
20
-109.875
10
-70.650000000000006
20
-109.875
42
-0.41421356237312101
0
LWPOLYLINE
5
137
100
AcDbEntity
8
0
100
AcDbPolyline
90
8
70
1
43
0.0
10
-3.4750000000000005
20
-81.799999999999997
10
-3.475000000000013
20
-94.800000000000011
42
-0.41421356237311452
10
-3.9750000000000001
20
-95.299999999999997
10
-16.975000000000001
20
-95.300000000000011
42
-0.41421356237309243
10
-17.475000000000001
20
-94.800000000000011
10
-17.474999999999987
20
-81.799999999999997
42
-0.41421356237311324
10
-16.975000000000001
20
-81.300000000000011
10
-3.9749999999999996
20
-81.299999999999969
42
-0.41421356237310514
0
LWPOLYLINE
5
138
100
AcDbEntity
8
0
100
AcDbPolyline
90
8
70
1
43
0.0
10
-41.575000000000003
20
-81.799999999999997
10
-41.575000000000017
20
-94.800000000000011
42
-0.41421356237311585
10
-42.075000000000003
20
-95.299999999999997
10
-55.075000000000003
20
-95.299999999999997
42
-0.41421356237312101
10
-55.575000000000003
20
-94.800000000000011
10
-55.575000000000003
20
-81.799999999999997
42
-0.41421356237312101
10
-55.075000000000003
20
-81.300000000000011
10
-42.075000000000003
20
-81.299999999999983
42
-0.41421356237311585
0
LWPOLYLINE
5
139
100
AcDbEntity
8
0
100
AcDbPolyline
90
8
70
1
43
0.0
10
-79.674999999999997
20
-81.799999999999997
10
-79.675000000000011
20
-94.800000000000011
42
-0.41421356237311585
10
-80.174999999999997
20
-95.299999999999997
10
-93.175000000000011
20
-95.300000000000011
42
-0.41421356237307422
10
-93.675000000000011
20
-94.800000000000011
10
-93.674999999999983
20
-81.799999999999997
42
-0.41421356237312623
10
-93.175000000000011
20
-81.300000000000011
10
-80.174999999999997
20
-81.299999999999983
42
-0.41421356237311585
0
LWPOLYLINE
5
140
100
AcDbEntity
8
0
100
AcDbPolyline
90
8
70
1
43
0.0
10
-117.77500000000001
20
-81.799999999999997
42
0.41421356237309503
10
-118.27500000000001
20
-81.299999999999983
10
-131.27500000000001
20
-81.300000000000011
42
0.41421356237313667
10
-131.77500000000003
20
-81.799999999999997
10
-131.77500000000003
20
-94.800000000000011
42
0.41421356237309503
10
-131.27500000000001
20
-95.299999999999997
10
-118.27500000000001
20
-95.299999999999997
42
0.41421356237313667
10
-117.77500000000002
20
-94.800000000000011
0
LWPOLYLINE
5
141
100
AcDbEntity
8
0
100
AcDbPolyline
90
8
70
1
43
0.0
10
-155.875
20
-81.799999999999997
10
-155.87500000000003
20
-94.800000000000011
42
-0.41421356237312623
10
-156.375
20
-95.299999999999997
10
-169.375
20
-95.300000000000026
42
-0.41421356237310542
10
-169.875
20
-94.800000000000011
10
-169.87499999999997
20
-81.799999999999997
42
-0.4142135623730534
10
-169.375
20
-81.300000000000011
10
-156.375
20
-81.299999999999983
42
-0.41421356237307422
0
LWPOLYLINE
5
142
100
AcDbEntity
8
0
100
AcDbPolyline
90
8
70
1
43
0.0
10
-193.97500000000002
20
-81.799999999999997
10
-193.97500000000002
20
-94.800000000000011
42
-0.4142135623730846
10
-194.47500000000002
20
-95.299999999999997
10
-207.47500000000002
20
-95.300000000000026
42
-0.41421356237310542
10
-207.97500000000002
20
-94.800000000000011
10
-207.97499999999999
20
-81.799999999999997
42
-0.4142135623730534
10
-207.47500000000002
20
-81.300000000000011
10
-194.47500000000002
20
-81.299999999999983
42
-0.41421356237313667
0
LWPOLYLINE
5
143
100
AcDbEntity
8
0
100
AcDbPolyline
90
8
70
1
43
0.0
10
-222.55000000000001
20
-62.75
10
-222.54999999999998
20
-75.75
42
-0.41421356237307422
10
-223.05000000000004
20
-76.25
10
-236.05000000000004
20
-76.249999999999986
42
-0.41421356237312101
10
-236.55000000000004
20
-75.75
10
-236.55000000000001
20
-62.75
42
-0.4142135623730222
10
-236.05000000000004
20
-62.250000000000007
10
-223.05000000000004
20
-62.25
42
-0.41421356237313667
0
LWPOLYLINE
5
144
100
AcDbEntity
8
0
100
AcDbPolyline
90
8
70
1
43
0.0
10
-189.21250000000001
20
-43.700000000000003
10
-189.21249999999998
20
-56.70000000000001
42
-0.41421356237307422
10
-189.71250000000001
20
-57.200000000000003
10
-202.71250000000003
20
-57.199999999999989
42
-0.41421356237312101
10
-203.21250000000003
20
-56.70000000000001
10
-203.21250000000006
20
-43.700000000000003
42
-0.41421356237312101
10
-202.71250000000003
20
-43.199999999999996
10
-189.71250000000001
20
-43.200000000000003
42
-0.41421356237313145
0
LWPOLYLINE
5
145
100
AcDbEntity
8
0
100
AcDbPolyline
90
8
70
1
43
0.0
10
-113.01250000000002
20
-43.700000000000003
10
-113.01249999999999
20
-56.70000000000001
42
-0.41421356237311585
10
-113.5125
20
-57.200000000000003
10
-126.51250000000002
20
-57.200000000000017
42
-0.41421356237309503
10
-127.01250000000002
20
-56.70000000000001
10
-127.01250000000002
20
-43.700000000000003
42
-0.41421356237309503
10
-126.51250000000002
20
-43.199999999999996
10
-113.5125
20
-43.20000000000001
42
-0.41421356237309503
0
LWPOLYLINE
5
146
100
AcDbEntity
8
0
100
AcDbPolyline
90
8
70
1
43
0.0
10
-36.8125
20
-43.700000000000003
10
-36.8125
20
-56.70000000000001
42
-0.41421356237309503
10
-37.3125
20
-57.200000000000003
10
-50.3125
20
-57.200000000000003
42
-0.41421356237309503
10
-50.8125
20
-56.70000000000001
10
-50.812500000000014
20
-43.700000000000003
42
-0.41421356237311063
10
-50.3125
20
-43.199999999999996
10
-37.3125
20
-43.200000000000003
42
-0.41421356237309503
0
LWPOLYLINE
5
147
100
AcDbEntity
8
0
100
AcDbPolyline
90
8
70
1
43
0.0
10
-289.22500000000002
20
-110.37500000000001
10
-289.22500000000002
20
-123.375
42
-0.4142135623730846
10
-289.72500000000002
20
-123.87500000000001
10
-302.72500000000002
20
-123.87500000000001
42
-0.41421356237309503
10
-303.22500000000002
20
-123.375
10
-303.22500000000002
20
-110.37500000000001
42
-0.41421356237313667
10
-302.72500000000002
20
-109.875
10
-289.72500000000002
20
-109.87499999999999
42
-0.41421356237310542
0
LWPOLYLINE
5
148
100
AcDbEntity
8
0
100
AcDbPolyline
90
8
70
1
43
0.0
10
-289.22500000000002
20
-62.75
10
-289.22500000000008
20
-75.75
42
-0.4142135623730222
10
-289.72500000000002
20
-76.25
10
-302.72500000000002
20
-76.25
42
-0.41421356237313145
10
-303.22500000000002
20
-75.75
10
-303.22500000000008
20
-62.75
42
-0.41421356237307422
10
-302.72500000000002
20
-62.250000000000007
10
-289.72500000000002
20
-62.250000000000014
42
-0.41421356237312623
0
LWPOLYLINE
5
149
100
AcDbEntity
8
0
100
AcDbPolyline
90
8
70
1
43
0.0
10
-270.17500000000001
20
-5.599999999999997
10
-270.17499999999995
20
-18.599999999999998
42
-0.41421356237312362
10
-270.67500000000001
20
-19.100000000000009
10
-283.67500000000001
20
-19.100000000000001
42
-0.41421356237313273
10
-284.17500000000007
20
-18.600000000000001
10
-284.17500000000007
20
-5.5999999999999979
42
-0.41421356237313406
10
-283.67500000000001
20
-5.0999999999999899
10
-270.67500000000001
20
-5.0999999999999783
42
-0.4142135623731022
0
LWPOLYLINE
5
150
100
AcDbEntity
8
0
100
AcDbPolyline
90
8
70
1
43
0.0
10
-289.22500000000002
20
-24.649999999999999
10
-289.22500000000002
20
-37.649999999999999
42
-0.41421356237310281
10
-289.72500000000002
20
-38.150000000000006
10
-302.72500000000002
20
-38.150000000000006
42
-0.41421356237313406
10
-303.22500000000002
20
-37.649999999999999
10
-303.22500000000002
20
-24.649999999999999
42
-0.41421356237313145
10
-302.72500000000002
20
-24.149999999999991
10
-289.72500000000002
20
-24.149999999999984
42
-0.41421356237310025
0
LWPOLYLINE
5
151
100
AcDbEntity
8
0
100
AcDbPolyline
90
8
70
1
43
0.0
10
-198.73750000000001
20
-24.649999999999999
10
-198.73750000000001
20
-37.649999999999999
42
-0.41421356237313406
10
-199.23750000000001
20
-38.150000000000006
10
-212.23750000000001
20
-38.15000000000002
42
-0.41421356237310281
10
-212.73750000000004
20
-37.649999999999999
10
-212.73750000000004
20
-24.649999999999999
42
-0.41421356237310025
10
-212.23750000000001
20
-24.149999999999991
10
-199.23750000000001
20
-24.149999999999999
42
-0.41421356237313145
0
LWPOLYLINE
5
152
100
AcDbEntity
8
0
100
AcDbPolyline
90
8
70
1
43
0.0
10
-6.3562500000000011
20
-19.099999999999998
10
-21.737500000000001
20
-19.100000000000001
42
-0.41421356237309631
10
-22.237499999999997
20
-18.600000000000001
10
-22.237499999999997
20
-5.5999999999999979
42
-0.4142135623730957
10
-21.737500000000001
20
-5.099999999999997
10
-6.3562500000000011
20
-5.0999999999999961
42
-0.4142135623730957
10
-5.8562500000000011
20
-5.599999999999997
10
-5.856250000000002
20
-18.599999999999998
42
-0.41421356237309698
0
LWPOLYLINE
5
153
100
AcDbEntity
8
0
100
AcDbPolyline
90
8
70
1
43
0.0
10
-103.48750000000001
20
-24.649999999999999
10
-103.48749999999998
20
-37.649999999999999
42
-0.41421356237309503
10
-103.9875
20
-38.150000000000006
10
-116.98750000000001
20
-38.150000000000006
42
-0.41421356237309503
10
-117.48750000000001
20
-37.649999999999999
10
-117.48750000000001
20
-24.649999999999999
42
-0.41421356237309243
10
-116.98750000000001
20
-24.149999999999991
10
-103.9875
20
-24.150000000000013
42
-0.41421356237309243
0
LWPOLYLINE
5
154
100
AcDbEntity
8
0
100
AcDbPolyline
90
8
70
1
43
0.0
10
-122.53749999999999
20
-24.649999999999999
10
-122.53749999999999
20
-37.649999999999999
42
-0.41421356237309503
10
-123.03750000000001
20
-38.150000000000006
10
-136.03749999999999
20
-38.150000000000006
42
-0.41421356237307422
10
-136.53749999999999
20
-37.649999999999999
10
-136.53749999999999
20
-24.649999999999999
42
-0.41421356237307161
10
-136.03749999999999
20
-24.149999999999991
10
-123.03750000000001
20
-24.149999999999995
42
-0.41421356237309243
0
LWPOLYLINE
5
155
100
AcDbEntity
8
0
100
AcDbPolyline
90
15
70
1
43
0.0
10
-67.981250000000003
20
-6.0999999999999979
42
0.41421356237309631
10
-67.481250000000017
20
-5.599999999999997
42
-0.41421356237310347
10
-66.981250000000017
20
-5.0999999999999899
10
-53.981250000000003
20
-5.0999999999999979
42
-0.4142135623730957
10
-53.481250000000003
20
-5.599999999999997
10
-53.481249999999996
20
-18.599999999999998
42
-0.41421356237310542
10
-53.981250000000003
20
-19.100000000000009
10
-63.625000000000007
20
-19.099999999999998
42
0.41421356237309631
10
-64.125
20
-19.600000000000001
10
-64.125000000000014
20
-20.599999999999994
42
-0.41421356237310025
10
-64.625
20
-21.099999999999998
10
-70.625
20
-21.100000000000001
42
-0.41421356237309764
10
-71.125
20
-20.600000000000001
10
-71.125
20
-6.6000000000000014
42
-0.41421356237309825
10
-70.625
20
-6.0999999999999979
0
LWPOLYLINE
5
156
100
AcDbEntity
8
0
100
AcDbPolyline
90
8
70
1
43
0.0
10
-30.168750000000003
20
-19.099999999999998
10
-50.3125
20
-19.100000000000005
42
-0.41421356237309764
10
-50.8125
20
-18.600000000000001
10
-50.8125
20
-5.5999999999999979
42
-0.41421356237309698
10
-50.3125
20
-5.099999999999997
10
-30.168750000000003
20
-5.0999999999999996
42
-0.41421356237309437
10
-29.668750000000003
20
-5.599999999999997
10
-29.668749999999999
20
-18.599999999999998
42
-0.41421356237309503
0
LWPOLYLINE
5
157
100
AcDbEntity
8
0
100
AcDbPolyline
90
8
70
1
43
0.0
10
-179.6875
20
-24.649999999999999
10
-179.6875
20
-37.649999999999999
42
-0.41421356237313406
10
-180.1875
20
-38.150000000000006
10
-193.1875
20
-38.15000000000002
42
-0.41421356237310281
10
-193.68750000000003
20
-37.649999999999999
10
-193.68750000000003
20
-24.649999999999999
42
-0.41421356237310025
10
-193.1875
20
-24.149999999999991
10
-180.1875
20
-24.149999999999999
42
-0.41421356237313145
0
LWPOLYLINE
5
158
100
AcDbEntity
8
0
100
AcDbPolyline
90
8
70
1
43
0.0
10
-270.17500000000001
20
-24.649999999999999
10
-270.17500000000001
20
-37.649999999999999
42
-0.41421356237310281
10
-270.67500000000001
20
-38.150000000000006
10
-283.67500000000001
20
-38.150000000000006
42
-0.41421356237313406
10
-284.17500000000007
20
-37.649999999999999
10
-284.17500000000007
20
-24.649999999999999
42
-0.41421356237313145
10
-283.67500000000001
20
-24.149999999999991
10
-270.67500000000001
20
-24.149999999999984
42
-0.41421356237310025
0
LWPOLYLINE
5
159
100
AcDbEntity
8
0
100
AcDbPolyline
90
8
70
1
43
0.0
10
-251.125
20
-5.599999999999997
10
-251.12499999999997
20
-18.599999999999998
42
-0.41421356237312362
10
-251.625
20
-19.100000000000009
10
-264.625
20
-19.100000000000001
42
-0.41421356237313273
10
-265.125
20
-18.600000000000001
10
-265.125
20
-5.5999999999999979
42
-0.41421356237313406
10
-264.625
20
-5.0999999999999899
10
-251.625
20
-5.0999999999999783
42
-0.4142135623731022
0
LWPOLYLINE
5
160
100
AcDbEntity
8
0
100
AcDbPolyline
90
8
70
1
43
0.0
10
-289.22500000000002
20
-43.700000000000003
10
-289.22500000000008
20
-56.70000000000001
42
-0.4142135623730222
10
-289.72500000000002
20
-57.200000000000003
10
-302.72500000000002
20
-57.200000000000003
42
-0.41421356237313145
10
-303.22500000000002
20
-56.70000000000001
10
-303.22500000000002
20
-43.700000000000003
42
-0.41421356237313145
10
-302.72500000000002
20
-43.199999999999996
10
-289.72500000000002
20
-43.200000000000017
42
-0.41421356237312101
0
LWPOLYLINE
5
161
100
AcDbEntity
8
0
100
AcDbPolyline
90
8
70
1
43
0.0
10
-260.64999999999998
20
-110.37500000000001
42
0.41421356237313667
10
-261.14999999999998
20
-109.875
10
-274.14999999999998
20
-109.875
42
0.41421356237310542
10
-274.64999999999998
20
-110.37500000000001
10
-274.64999999999998
20
-123.375
42
0.4142135623730846
10
-274.14999999999998
20
-123.87500000000001
10
-261.14999999999998
20
-123.87500000000001
42
0.41421356237309503
10
-260.64999999999998
20
-123.375
0
LWPOLYLINE
5
162
100
AcDbEntity
8
0
100
AcDbPolyline
90
8
70
1
43
0.0
10
-55.862499999999997
20
-43.700000000000003
10
-55.862500000000004
20
-56.70000000000001
42
-0.41421356237309503
10
-56.362500000000004
20
-57.200000000000003
10
-69.362499999999997
20
-57.200000000000003
42
-0.41421356237309503
10
-69.862499999999997
20
-56.70000000000001
10
-69.862500000000011
20
-43.700000000000003
42
-0.41421356237310542
10
-69.362499999999997
20
-43.199999999999996
10
-56.362500000000004
20
-43.199999999999996
42
-0.41421356237309503
0
LWPOLYLINE
5
163
100
AcDbEntity
8
0
100
AcDbPolyline
90
8
70
1
43
0.0
10
-132.0625
20
-43.700000000000003
10
-132.0625
20
-56.70000000000001
42
-0.41421356237311585
10
-132.5625
20
-57.200000000000003
10
-145.5625
20
-57.200000000000017
42
-0.41421356237307422
10
-146.0625
20
-56.70000000000001
10
-146.0625
20
-43.700000000000003
42
-0.41421356237307422
10
-145.5625
20
-43.199999999999996
10
-132.5625
20
-43.199999999999996
42
-0.41421356237309503
0
LWPOLYLINE
5
164
100
AcDbEntity
8
0
100
AcDbPolyline
90
8
70
1
43
0.0
10
-208.26250000000002
20
-43.700000000000003
10
-208.26250000000002
20
-56.70000000000001
42
-0.4142135623730222
10
-208.76249999999999
20
-57.200000000000003
10
-221.76249999999999
20
-57.200000000000003
42
-0.41421356237313145
10
-222.26249999999999
20
-56.70000000000001
10
-222.26249999999999
20
-43.700000000000003
42
-0.41421356237313145
10
-221.76249999999999
20
-43.199999999999996
10
-208.76249999999999
20
-43.20000000000006
42
-0.41421356237312101
0
LWPOLYLINE
5
165
100
AcDbEntity
8
0
100
AcDbPolyline
90
8
70
1
43
0.0
10
-232.07499999999999
20
-81.799999999999997
10
-232.07500000000005
20
-94.800000000000011
42
-0.4142135623730534
10
-232.57499999999999
20
-95.299999999999997
10
-245.57500000000002
20
-95.300000000000011
42
-0.41421356237313667
10
-246.07500000000002
20
-94.800000000000011
10
-246.07500000000002
20
-81.799999999999997
42
-0.4142135623730846
10
-245.57500000000002
20
-81.300000000000011
10
-232.57499999999999
20
-81.299999999999969
42
-0.41421356237310542
0
LWPOLYLINE
5
166
100
AcDbEntity
8
0
100
AcDbPolyline
90
8
70
1
43
0.0
10
-184.44999999999999
20
-62.75
10
-184.44999999999996
20
-75.75
42
-0.41421356237307422
10
-184.95000000000002
20
-76.25
10
-197.95000000000002
20
-76.249999999999986
42
-0.41421356237312101
10
-198.45000000000002
20
-75.75
10
-198.44999999999999
20
-62.75
42
-0.4142135623730222
10
-197.95000000000002
20
-62.250000000000007
10
-184.95000000000002
20
-62.25
42
-0.41421356237313667
0
LWPOLYLINE
5
167
100
AcDbEntity
8
0
100
AcDbPolyline
90
8
70
1
43
0.0
10
-146.34999999999999
20
-62.75
10
-146.35000000000002
20
-75.75
42
-0.41421356237310025
10
-146.84999999999999
20
-76.25
10
-159.84999999999999
20
-76.25
42
-0.41421356237311063
10
-160.34999999999999
20
-75.75
10
-160.34999999999999
20
-62.75
42
-0.41421356237303258
10
-159.84999999999999
20
-62.250000000000007
10
-146.85000000000002
20
-62.249999999999986
42
-0.41421356237307944
0
LWPOLYLINE
5
168
100
AcDbEntity
8
0
100
AcDbPolyline
90
8
70
1
43
0.0
10
-127.30000000000001
20
-62.75
42
0.41421356237310025
10
-127.80000000000001
20
-62.249999999999986
10
-140.80000000000001
20
-62.250000000000007
42
0.41421356237312101
10
-141.30000000000001
20
-62.75
10
-141.30000000000001
20
-75.75
42
0.41421356237309503
10
-140.80000000000001
20
-76.25
10
-127.80000000000001
20
-76.25
42
0.41421356237311585
10
-127.30000000000001
20
-75.75
0
LWPOLYLINE
5
169
100
AcDbEntity
8
0
100
AcDbPolyline
90
8
70
1
43
0.0
10
-70.150000000000006
20
-62.75
10
-70.15000000000002
20
-75.75
42
-0.41421356237309503
10
-70.650000000000006
20
-76.25
10
-83.650000000000006
20
-76.250000000000014
42
-0.41421356237307422
10
-84.150000000000006
20
-75.75
10
-84.149999999999991
20
-62.75
42
-0.41421356237310542
10
-83.650000000000006
20
-62.250000000000007
10
-70.650000000000006
20
-62.25
42
-0.41421356237310542
0
LWPOLYLINE
5
170
100
AcDbEntity
8
0
100
AcDbPolyline
90
8
70
1
43
0.0
10
-32.049999999999997
20
-62.75
10
-32.049999999999997
20
-75.75
42
-0.41421356237309503
10
-32.549999999999997
20
-76.25
10
-45.549999999999997
20
-76.25
42
-0.41421356237309503
10
-46.049999999999997
20
-75.75
10
-46.049999999999997
20
-62.75
42
-0.41421356237310542
10
-45.549999999999997
20
-62.250000000000007
10
-32.549999999999997
20
-62.250000000000014
42
-0.41421356237309764
0
LWPOLYLINE
5
171
100
AcDbEntity
8
0
100
AcDbPolyline
90
8
70
1
43
0.0
10
-3.4750000000000005
20
-110.37500000000001
10
-3.474999999999993
20
-123.375
42
-0.41421356237307422
10
-3.9750000000000001
20
-123.87500000000001
10
-16.975000000000001
20
-123.87500000000001
42
-0.41421356237307161
10
-17.475000000000001
20
-123.375
10
-17.475000000000005
20
-110.37500000000001
42
-0.41421356237309243
10
-16.975000000000001
20
-109.875
10
-3.9749999999999996
20
-109.87499999999999
42
-0.41421356237310514
0
LWPOLYLINE
5
172
100
AcDbEntity
8
0
100
AcDbPolyline
90
8
70
1
43
0.0
10
-89.700000000000003
20
-123.87500000000001
10
-102.70000000000002
20
-123.87500000000001
42
-0.4142135623730534
10
-103.20000000000002
20
-123.375
10
-103.20000000000002
20
-110.37500000000001
42
-0.41421356237307422
10
-102.70000000000002
20
-109.875
10
-89.700000000000003
20
-109.875
42
-0.41421356237307422
10
-89.200000000000003
20
-110.37500000000001
10
-89.200000000000003
20
-123.375
42
-0.4142135623730534
0
LWPOLYLINE
5
173
100
AcDbEntity
8
0
100
AcDbPolyline
90
8
70
1
43
0.0
10
-174.92500000000004
20
-110.37500000000001
10
-174.92500000000001
20
-123.375
42
-0.41421356237309503
10
-175.42500000000001
20
-123.87500000000001
10
-188.42500000000001
20
-123.875
42
-0.4142135623730846
10
-188.92500000000001
20
-123.375
10
-188.92499999999998
20
-110.37500000000001
42
-0.41421356237310542
10
-188.42500000000001
20
-109.875
10
-175.42500000000001
20
-109.87500000000004
42
-0.41421356237313667
0
LWPOLYLINE
5
174
100
AcDbEntity
8
0
100
AcDbPolyline
90
24
70
1
43
0.0
10
-283.58800000000002
20
-81.300000000000011
42
0.4142135623730846
10
-283.08799999999997
20
-80.799999999999997
10
-283.08800000000008
20
-79.800000000000011
42
-0.41421356237307422
10
-282.58800000000002
20
-79.300000000000011
10
-276.58800000000002
20
-79.299999999999997
42
-0.41421356237313667
10
-276.08800000000002
20
-79.800000000000011
10
-276.08800000000002
20
-80.799999999999997
42
0.4142135623730846
10
-275.58800000000008
20
-81.299999999999983
10
-259.71199999999999
20
-81.300000000000011
42
0.41421356237309503
10
-259.21199999999999
20
-80.799999999999997
10
-259.21199999999999
20
-79.800000000000011
42
-0.4142135623730222
10
-258.71199999999999
20
-79.300000000000011
10
-252.71199999999999
20
-79.300000000000011
42
-0.41421356237312623
10
-252.21199999999999
20
-79.800000000000011
10
-252.21199999999999
20
-80.799999999999997
42
0.4142135623730846
10
-251.71199999999999
20
-81.299999999999983
10
-251.625
20
-81.299999999999969
42
-0.41421356237310542
10
-251.125
20
-81.799999999999997
10
-251.12500000000006
20
-94.800000000000011
42
-0.4142135623730534
10
-251.625
20
-95.299999999999997
10
-283.67500000000001
20
-95.300000000000011
42
-0.41421356237313667
10
-284.17500000000007
20
-94.800000000000011
10
-284.17500000000007
20
-81.799999999999997
42
-0.4142135623730846
10
-283.67500000000001
20
-81.300000000000011
0
LWPOLYLINE
5
175
100
AcDbEntity
8
0
100
AcDbPolyline
90
24
70
1
43
0.0
10
-6.9432500000000008
20
-23.649999999999999
42
0.41421356237309503
10
-6.4432500000000008
20
-24.149999999999999
10
-6.3562500000000011
20
-24.149999999999999
42
-0.41421356237309503
10
-5.8562500000000011
20
-24.649999999999999
10
-5.8562499999999975
20
-37.649999999999999
42
-0.41421356237309309
10
-6.3562500000000011
20
-38.150000000000006
10
-40.787499999999994
20
-38.150000000000006
42
-0.41421356237309243
10
-41.287500000000009
20
-37.649999999999999
10
-41.287500000000009
20
-24.649999999999999
42
-0.41421356237309503
10
-40.787500000000001
20
-24.149999999999991
10
-38.319249999999997
20
-24.149999999999999
42
0.41421356237309503
10
-37.819250000000004
20
-23.649999999999999
10
-37.819250000000004
20
-22.650000000000002
42
-0.41421356237309503
10
-37.319249999999997
20
-22.149999999999995
10
-31.319250000000004
20
-22.150000000000002
42
-0.41421356237309503
10
-30.819250000000004
20
-22.650000000000002
10
-30.81925
20
-23.649999999999999
42
0.41421356237309503
10
-30.319250000000004
20
-24.149999999999995
10
-14.443250000000001
20
-24.149999999999999
42
0.41421356237309503
10
-13.943250000000003
20
-23.649999999999999
10
-13.943250000000006
20
-22.650000000000006
42
-0.4142135623730937
10
-13.443250000000003
20
-22.149999999999995
10
-7.4432499999999999
20
-22.149999999999999
42
-0.41421356237309503
10
-6.9432499999999999
20
-22.650000000000002
0
LWPOLYLINE
5
176
100
AcDbEntity
8
0
100
AcDbPolyline
90
22
70
1
43
0.0
10
-109.25624999999999
20
-6.0999999999999979
10
-101.31825000000001
20
-6.0999999999999979
42
0.41421356237307355
10
-100.81825000000003
20
-5.599999999999997
42
-0.4142135623731048
10
-100.31825000000001
20
-5.099999999999997
10
-87.318250000000006
20
-5.1000000000000085
42
-0.4142135623731048
10
-86.818250000000006
20
-5.599999999999997
42
0.41421356237307355
10
-86.318250000000006
20
-6.1000000000000032
10
-78.880250000000004
20
-6.0999999999999979
42
-0.41421356237309631
10
-78.380250000000004
20
-6.5999999999999979
10
-78.380250000000004
20
-20.599375390509497
42
-0.42892289486173241
10
-78.905218801049202
20
-21.098751560319563
10
-78.880250000000004
20
-21.100000000000001
10
-84.91825
20
-21.100000000000012
42
-0.41421356237307683
10
-85.418250000000015
20
-20.600000000000001
10
-85.418250000000015
20
-19.600000000000001
42
0.4142135623730937
10
-85.91825
20
-19.099999999999998
10
-101.75624999999999
20
-19.099999999999998
42
0.41421356237309243
10
-102.25625000000001
20
-19.600000000000001
10
-102.25624999999999
20
-20.599999999999994
42
-0.41421356237308982
10
-102.75624999999999
20
-21.099999999999998
10
-108.75624999999999
20
-21.09999999999998
42
-0.41421356237311063
10
-109.25624999999998
20
-20.600000000000001
0
LWPOLYLINE
5
177
100
AcDbEntity
8
0
100
AcDbPolyline
90
8
70
1
43
0.0
10
-118.27500000000001
20
-19.099999999999998
10
-138.41825
20
-19.099999999999987
42
-0.41421356237311324
10
-138.91825
20
-18.600000000000001
10
-138.91825000000003
20
-5.5999999999999979
42
-0.41421356237310542
10
-138.41825
20
-5.099999999999997
10
-118.27500000000001
20
-5.0999999999999908
42
-0.41421356237309437
10
-117.77500000000001
20
-5.599999999999997
10
-117.77500000000001
20
-18.599999999999998
42
-0.41421356237309631
0
LWPOLYLINE
5
178
100
AcDbEntity
8
0
100
AcDbPolyline
90
7
70
1
43
0.0
10
-65.387500000000003
20
-24.149999999999999
10
-65.387500000000003
20
-37.649999999999999
42
-0.41421356237310281
10
-65.887500000000017
20
-38.150000000000006
10
-78.887500000000003
20
-38.149999999999999
42
-0.41421356237309503
10
-79.387500000000003
20
-37.649999999999999
10
-79.387500000000017
20
-24.649999999999999
42
-0.41421356237309503
10
-78.887500000000003
20
-24.149999999999991
0
LWPOLYLINE
5
179
100
AcDbEntity
8
0
100
AcDbPolyline
90
21
70
1
43
0.0
10
-149.81774999948377
20
-6.0999999999999961
10
-149.81774999999999
20
-20.599999999999994
42
-0.41421356237311063
10
-150.31774999999999
20
-21.099999999999998
10
-156.31774999999999
20
-21.100000000000009
42
-0.41421356237307422
10
-156.81774999999999
20
-20.600000000000001
10
-156.81774999999999
20
-19.600000000000001
42
0.4142135623730937
10
-157.31774999999999
20
-19.099999999999998
10
-173.19375000000002
20
-19.099999999999998
42
0.41421356237302348
10
-173.69374999999997
20
-19.600000000000001
10
-173.69374999999997
20
-20.599999999999994
42
-0.4142135623730846
10
-174.19374999999999
20
-21.099999999999998
10
-184.91825000000003
20
-21.100000000000001
42
-0.41421356237313406
10
-185.41825000000003
20
-20.600000000000001
10
-185.41825000000006
20
-6.6000000000000014
42
-0.4142135623730781
10
-184.91825000000003
20
-6.0999999999999979
10
-172.75575000000001
20
-6.0999999999999872
42
0.41421356237307683
10
-172.25574999999998
20
-5.599999999999997
42
-0.41421356237302481
10
-171.75575000000003
20
-5.099999999999997
10
-158.75575000000001
20
-5.0999999999999908
42
-0.41421356237309437
10
-158.25575000000001
20
-5.599999999999997
42
0.41421356237307355
10
-157.75575000000001
20
-6.1000000000000032
0
LWPOLYLINE
5
180
100
AcDbEntity
8
0
100
AcDbPolyline
90
8
70
1
43
0.0
10
-241.3125
20
-56.70000000000001
42
0.41421356237313145
10
-240.8125
20
-57.200000000000003
10
-227.8125
20
-57.200000000000003
42
0.4142135623730222
10
-227.31250000000003
20
-56.70000000000001
10
-227.3125
20
-43.700000000000003
42
0.41421356237312101
10
-227.8125
20
-43.200000000000003
10
-240.8125
20
-43.199999999999996
42
0.41421356237313145
10
-241.3125
20
-43.700000000000003
0
LWPOLYLINE
5
181
100
AcDbEntity
8
0
100
AcDbPolyline
90
48
70
1
43
0.0
10
-246.86250000000001
20
-57.200000000000003
10
-267.29374999999999
20
-57.200000000000003
42
0.41421356237307422
10
-267.79375000000005
20
-57.700000000000003
10
-267.79375000000005
20
-61.750000000000007
42
0.41421356237307422
10
-267.29374999999999
20
-62.249999999999979
10
-265.91250000000002
20
-62.250000000000014
42
-0.41421356237312623
10
-265.41250000000002
20
-62.75
10
-265.41250000000002
20
-75.75
42
-0.4142135623730222
10
-265.91250000000002
20
-76.25
10
-278.91250000000002
20
-76.25
42
-0.41421356237313145
10
-279.41250000000002
20
-75.75
10
-279.41250000000002
20
-75.662999999999997
42
0.41421356237307422
10
-279.91250000000002
20
-75.163000000000025
10
-280.29375000000005
20
-75.162999999999997
42
-0.41421356237312623
10
-280.79375000000005
20
-74.663000000000011
10
-280.79374999999999
20
-68.662999999999997
42
-0.4142135623730222
10
-280.29375000000005
20
-68.162999999999997
10
-279.91250000000002
20
-68.162999999999997
42
0.41421356237307422
10
-279.41250000000002
20
-67.662999999999997
10
-279.41250000000002
20
-67.224999999999994
42
0.41421356237307422
10
-279.91250000000002
20
-66.725000000000023
10
-281.29374999999999
20
-66.724999999999994
42
-0.41421356237313145
10
-281.79374999999999
20
-66.224999999999994
10
-281.79375000000005
20
-53.225000000000009
42
-0.41421356237307422
10
-281.29374999999999
20
-52.725000000000009
10
-281.20675
20
-52.725000000000009
42
0.41421356237307422
10
-280.70675
20
-52.225000000000001
10
-280.70675
20
-41.70000000000001
42
-0.41421356237309503
10
-280.20675
20
-41.20000000000001
10
-274.20675000000006
20
-41.200000000000031
42
-0.41421356237312101
10
-273.70675
20
-41.70000000000001
10
-273.70675
20
-43.787000000000006
42
0.4142135623730222
10
-273.20675
20
-44.287000000000027
10
-272.76875000000007
20
-44.286999999999999
42
0.4142135623730222
10
-272.26875000000007
20
-43.787000000000006
10
-272.26875000000007
20
-43.700000000000003
42
-0.41421356237312101
10
-271.76875000000001
20
-43.199999999999996
10
-257.33075000000002
20
-43.200000000000003
42
0.41421356237307422
10
-256.83074999999997
20
-42.700000000000003
10
-256.83075000000008
20
-41.70000000000001
42
-0.41421356237312101
10
-256.33075000000008
20
-41.200000000000003
10
-250.33074999999999
20
-41.20000000000001
42
-0.41421356237313145
10
-249.83074999999999
20
-41.70000000000001
10
-249.83074999999999
20
-42.700000000000003
42
0.4142135623730222
10
-249.33075000000002
20
-43.200000000000031
10
-246.86250000000001
20
-43.200000000000017
42
-0.41421356237312101
10
-246.36250000000001
20
-43.700000000000003
10
-246.36250000000004
20
-56.70000000000001
42
-0.4142135623730222
0
LWPOLYLINE
5
182
100
AcDbEntity
8
0
100
AcDbPolyline
90
8
70
1
43
0.0
10
-121.75
20
-62.250000000000007
10
-108.75
20
-62.249999999999986
42
-0.41421356237310025
10
-108.25
20
-62.75
10
-108.25
20
-75.75
42
-0.41421356237311585
10
-108.75
20
-76.25
10
-121.75
20
-76.250000000000014
42
-0.41421356237309503
10
-122.25000000000001
20
-75.75
10
-122.25
20
-62.75
42
-0.41421356237312101
0
CIRCLE
5
183
100
AcDbEntity
8
0
100
AcDbCircle
10
-281.935
20
-109.396585301313
30
0
40
1.6000000000000003
210
0
220
-9.8607613152626476e-32
230
1
0
ENDSEC
0
SECTION
2
OBJECTS
0
DICTIONARY
5
C
100
AcDbDictionary
3
ACAD_GROUP
350
D
3
ACAD_MLINESTYLE
350
17
0
DICTIONARY
5
D
100
AcDbDictionary
0
DICTIONARY
5
1A
330
C
100
AcDbDictionary
0
DICTIONARY
5
17
100
AcDbDictionary
0
ENDSEC
0
EOF
