<?xml version="1.0" encoding="UTF-8" standalone="no"?>
<!-- Created with Inkscape (http://www.inkscape.org/) -->

<svg
   version="1.1"
   id="svg2"
   width="1333.3333"
   height="1333.3333"
   viewBox="0 0 1333.3333 1333.3333"
   sodipodi:docname="artemis_logo.ai"
   xmlns:inkscape="http://www.inkscape.org/namespaces/inkscape"
   xmlns:sodipodi="http://sodipodi.sourceforge.net/DTD/sodipodi-0.dtd"
   xmlns="http://www.w3.org/2000/svg"
   xmlns:svg="http://www.w3.org/2000/svg">
  <defs
     id="defs6">
    <clipPath
       clipPathUnits="userSpaceOnUse"
       id="clipPath16">
      <path
         d="M 0,1000 H 1000 V 0 H 0 Z"
         id="path14" />
    </clipPath>
  </defs>
  <sodipodi:namedview
     id="namedview4"
     pagecolor="#ffffff"
     bordercolor="#000000"
     borderopacity="0.25"
     inkscape:showpageshadow="2"
     inkscape:pageopacity="0.0"
     inkscape:pagecheckerboard="0"
     inkscape:deskcolor="#d1d1d1" />
  <g
     id="g8"
     inkscape:groupmode="layer"
     inkscape:label="artemis_logo"
     transform="matrix(1.3333333,0,0,-1.3333333,0,1333.3333)">
    <g
       id="g10">
      <g
         id="g12"
         clip-path="url(#clipPath16)">
        <g
           id="g18"
           transform="translate(748.8506,273.5164)">
          <path
             d="m 0,0 -9.435,12.554 c -36.928,58.973 -95.02,103.343 -163.637,122.443 L -249.509,302.74 -326.092,134.696 C -394.227,115.421 -451.899,71.219 -488.625,12.554 l -10.4,-14.61 250.104,543.988 z"
             style="fill:#ffffff;fill-opacity:1;fill-rule:nonzero;stroke:none"
             id="path20" />
        </g>
        <g
           id="g22"
           transform="translate(310.2609,314.8871)">
          <path
             d="M 0,0 C 27.598,25.031 60.176,44.67 96.062,57.266 L 76.087,13.435 C 49.559,2.777 24.877,-11.512 2.658,-28.815 c -35.061,-27.297 -64.002,-62.092 -84.41,-101.972 10.938,37.865 29.584,72.458 54.133,101.972 0,0 16.457,19.933 27.591,28.794 C -0.021,-0.014 -0.007,-0.007 0,0"
             style="fill:#ffffff;fill-opacity:1;fill-rule:nonzero;stroke:none"
             id="path24" />
        </g>
        <g
           id="g26"
           transform="translate(771.3505,184.1354)">
          <path
             d="m 0,0 c -20.408,39.865 -49.342,74.646 -84.396,101.937 -22.632,17.617 -47.81,32.109 -74.891,42.831 l -19.933,43.747 c 37.152,-12.82 70.786,-33.173 99.09,-59.232 l 0.021,-0.021 c 9.253,-8.519 17.933,-17.646 25.983,-27.325 C -29.584,72.429 -10.939,37.851 0,0"
             style="fill:#ffffff;fill-opacity:1;fill-rule:nonzero;stroke:none"
             id="path28" />
        </g>
      </g>
    </g>
  </g>
</svg>
